ISO-10303-21;
HEADER;
/* Generated by software containing ST-Developer
 * from STEP Tools, Inc. (www.steptools.com) 
 */

FILE_DESCRIPTION(
/* description */ (''),
/* implementation_level */ '2;1');

FILE_NAME(
/* name */ 'BaseBottomHexBoxV1.stp',
/* time_stamp */ '2026-02-09T17:58:06+13:00',
/* author */ ('Liam'),
/* organization */ (''),
/* preprocessor_version */ 'ST-DEVELOPER v19.2',
/* originating_system */ 'Autodesk Inventor 2024',
/* authorisation */ '');

FILE_SCHEMA (('AUTOMOTIVE_DESIGN { 1 0 10303 214 3 1 1 }'));
ENDSEC;

DATA;
#10=MECHANICAL_DESIGN_GEOMETRIC_PRESENTATION_REPRESENTATION('',(#44,#45,
#46,#47,#48,#49,#50,#51,#52,#53,#54,#55,#56,#57,#58,#59,#60,#61,#62,#63,
#64,#65,#66,#67,#68,#69,#70,#71,#72,#73,#74,#75,#76,#77,#78,#79,#80,#81,
#82,#83,#84,#85,#86,#87,#88,#89,#90,#91,#92,#93,#94,#95,#96,#97,#98,#99,
#100),#1935);
#11=SHAPE_REPRESENTATION_RELATIONSHIP('SRR','None',#1942,#12);
#12=ADVANCED_BREP_SHAPE_REPRESENTATION('',(#13),#1934);
#13=MANIFOLD_SOLID_BREP('Solid1',#1096);
#14=TOROIDAL_SURFACE('',#1135,22.,2.);
#15=TOROIDAL_SURFACE('',#1140,22.,2.);
#16=TOROIDAL_SURFACE('',#1157,6.,2.);
#17=TOROIDAL_SURFACE('',#1162,22.,2.);
#18=TOROIDAL_SURFACE('',#1167,6.,2.);
#19=TOROIDAL_SURFACE('',#1181,6.,2.);
#20=TOROIDAL_SURFACE('',#1186,6.,2.);
#21=TOROIDAL_SURFACE('',#1191,22.,2.);
#22=CYLINDRICAL_SURFACE('',#1125,11.);
#23=CYLINDRICAL_SURFACE('',#1127,20.);
#24=CYLINDRICAL_SURFACE('',#1138,20.);
#25=CYLINDRICAL_SURFACE('',#1143,20.);
#26=CYLINDRICAL_SURFACE('',#1146,11.);
#27=CYLINDRICAL_SURFACE('',#1151,20.);
#28=CYLINDRICAL_SURFACE('',#1153,20.);
#29=CYLINDRICAL_SURFACE('',#1161,2.);
#30=CYLINDRICAL_SURFACE('',#1165,2.);
#31=CYLINDRICAL_SURFACE('',#1170,2.);
#32=CYLINDRICAL_SURFACE('',#1171,20.);
#33=CYLINDRICAL_SURFACE('',#1174,8.);
#34=CYLINDRICAL_SURFACE('',#1177,8.);
#35=CYLINDRICAL_SURFACE('',#1179,2.);
#36=CYLINDRICAL_SURFACE('',#1184,2.);
#37=CYLINDRICAL_SURFACE('',#1189,2.);
#38=CYLINDRICAL_SURFACE('',#1193,2.5);
#39=CYLINDRICAL_SURFACE('',#1217,2.5);
#40=CYLINDRICAL_SURFACE('',#1218,2.5);
#41=CYLINDRICAL_SURFACE('',#1219,1.5);
#42=CYLINDRICAL_SURFACE('',#1220,1.5);
#43=CYLINDRICAL_SURFACE('',#1221,2.5);
#44=STYLED_ITEM('',(#1952),#1040);
#45=STYLED_ITEM('',(#1952),#1041);
#46=STYLED_ITEM('',(#1952),#1042);
#47=STYLED_ITEM('',(#1952),#1043);
#48=STYLED_ITEM('',(#1952),#1044);
#49=STYLED_ITEM('',(#1952),#1045);
#50=STYLED_ITEM('',(#1952),#1046);
#51=STYLED_ITEM('',(#1952),#1047);
#52=STYLED_ITEM('',(#1952),#1048);
#53=STYLED_ITEM('',(#1952),#1049);
#54=STYLED_ITEM('',(#1952),#1050);
#55=STYLED_ITEM('',(#1952),#1051);
#56=STYLED_ITEM('',(#1952),#1052);
#57=STYLED_ITEM('',(#1952),#1053);
#58=STYLED_ITEM('',(#1952),#1054);
#59=STYLED_ITEM('',(#1952),#1055);
#60=STYLED_ITEM('',(#1952),#1056);
#61=STYLED_ITEM('',(#1952),#1057);
#62=STYLED_ITEM('',(#1952),#1058);
#63=STYLED_ITEM('',(#1952),#1059);
#64=STYLED_ITEM('',(#1952),#1060);
#65=STYLED_ITEM('',(#1952),#1061);
#66=STYLED_ITEM('',(#1952),#1062);
#67=STYLED_ITEM('',(#1952),#1063);
#68=STYLED_ITEM('',(#1952),#1064);
#69=STYLED_ITEM('',(#1952),#1065);
#70=STYLED_ITEM('',(#1952),#1066);
#71=STYLED_ITEM('',(#1952),#1067);
#72=STYLED_ITEM('',(#1952),#1068);
#73=STYLED_ITEM('',(#1952),#1069);
#74=STYLED_ITEM('',(#1952),#1070);
#75=STYLED_ITEM('',(#1952),#1071);
#76=STYLED_ITEM('',(#1952),#1072);
#77=STYLED_ITEM('',(#1952),#1073);
#78=STYLED_ITEM('',(#1952),#1074);
#79=STYLED_ITEM('',(#1952),#1075);
#80=STYLED_ITEM('',(#1952),#1076);
#81=STYLED_ITEM('',(#1952),#1077);
#82=STYLED_ITEM('',(#1952),#1078);
#83=STYLED_ITEM('',(#1952),#1079);
#84=STYLED_ITEM('',(#1952),#1080);
#85=STYLED_ITEM('',(#1952),#1081);
#86=STYLED_ITEM('',(#1952),#1082);
#87=STYLED_ITEM('',(#1952),#1083);
#88=STYLED_ITEM('',(#1952),#1084);
#89=STYLED_ITEM('',(#1952),#1085);
#90=STYLED_ITEM('',(#1952),#1086);
#91=STYLED_ITEM('',(#1952),#1087);
#92=STYLED_ITEM('',(#1952),#1088);
#93=STYLED_ITEM('',(#1952),#1089);
#94=STYLED_ITEM('',(#1952),#1090);
#95=STYLED_ITEM('',(#1952),#1091);
#96=STYLED_ITEM('',(#1952),#1092);
#97=STYLED_ITEM('',(#1952),#1093);
#98=STYLED_ITEM('',(#1952),#1094);
#99=STYLED_ITEM('',(#1952),#1095);
#100=STYLED_ITEM('',(#1951),#13);
#101=FACE_BOUND('',#224,.T.);
#102=FACE_BOUND('',#230,.T.);
#103=FACE_BOUND('',#261,.T.);
#104=FACE_BOUND('',#262,.T.);
#105=FACE_BOUND('',#263,.T.);
#106=FACE_BOUND('',#264,.T.);
#107=FACE_BOUND('',#266,.T.);
#108=FACE_BOUND('',#284,.T.);
#109=CIRCLE('',#1121,20.);
#110=CIRCLE('',#1122,11.);
#111=CIRCLE('',#1123,20.);
#112=CIRCLE('',#1126,11.);
#113=CIRCLE('',#1128,20.);
#114=CIRCLE('',#1131,22.);
#115=CIRCLE('',#1132,6.);
#116=CIRCLE('',#1133,6.);
#117=CIRCLE('',#1134,22.);
#118=CIRCLE('',#1136,20.);
#119=CIRCLE('',#1137,2.);
#120=CIRCLE('',#1139,20.);
#121=CIRCLE('',#1141,22.);
#122=CIRCLE('',#1142,2.);
#123=CIRCLE('',#1144,20.);
#124=CIRCLE('',#1145,20.);
#125=CIRCLE('',#1147,11.);
#126=CIRCLE('',#1148,11.);
#127=CIRCLE('',#1150,20.);
#128=CIRCLE('',#1152,20.);
#129=CIRCLE('',#1154,20.);
#130=CIRCLE('',#1158,2.00000000000001);
#131=CIRCLE('',#1159,2.);
#132=CIRCLE('',#1160,8.);
#133=CIRCLE('',#1163,2.);
#134=CIRCLE('',#1164,20.);
#135=CIRCLE('',#1166,2.);
#136=CIRCLE('',#1168,2.);
#137=CIRCLE('',#1169,8.);
#138=CIRCLE('',#1172,20.);
#139=CIRCLE('',#1175,8.);
#140=CIRCLE('',#1178,8.);
#141=CIRCLE('',#1180,2.);
#142=CIRCLE('',#1182,2.);
#143=CIRCLE('',#1183,6.);
#144=CIRCLE('',#1185,2.);
#145=CIRCLE('',#1187,2.);
#146=CIRCLE('',#1188,6.);
#147=CIRCLE('',#1190,2.);
#148=CIRCLE('',#1192,22.);
#149=CIRCLE('',#1194,2.5);
#150=CIRCLE('',#1195,2.5);
#151=CIRCLE('',#1196,2.5);
#152=CIRCLE('',#1199,2.5);
#153=CIRCLE('',#1200,2.5);
#154=CIRCLE('',#1201,2.5);
#155=CIRCLE('',#1202,1.5);
#156=CIRCLE('',#1203,1.5);
#157=CIRCLE('',#1204,2.5);
#158=CIRCLE('',#1207,1.5);
#159=CIRCLE('',#1209,1.5);
#160=CIRCLE('',#1211,2.5);
#161=CIRCLE('',#1213,2.5);
#162=CIRCLE('',#1215,2.5);
#163=FACE_OUTER_BOUND('',#222,.T.);
#164=FACE_OUTER_BOUND('',#223,.T.);
#165=FACE_OUTER_BOUND('',#225,.T.);
#166=FACE_OUTER_BOUND('',#226,.T.);
#167=FACE_OUTER_BOUND('',#227,.T.);
#168=FACE_OUTER_BOUND('',#228,.T.);
#169=FACE_OUTER_BOUND('',#229,.T.);
#170=FACE_OUTER_BOUND('',#231,.T.);
#171=FACE_OUTER_BOUND('',#232,.T.);
#172=FACE_OUTER_BOUND('',#233,.T.);
#173=FACE_OUTER_BOUND('',#234,.T.);
#174=FACE_OUTER_BOUND('',#235,.T.);
#175=FACE_OUTER_BOUND('',#236,.T.);
#176=FACE_OUTER_BOUND('',#237,.T.);
#177=FACE_OUTER_BOUND('',#238,.T.);
#178=FACE_OUTER_BOUND('',#239,.T.);
#179=FACE_OUTER_BOUND('',#240,.T.);
#180=FACE_OUTER_BOUND('',#241,.T.);
#181=FACE_OUTER_BOUND('',#242,.T.);
#182=FACE_OUTER_BOUND('',#243,.T.);
#183=FACE_OUTER_BOUND('',#244,.T.);
#184=FACE_OUTER_BOUND('',#245,.T.);
#185=FACE_OUTER_BOUND('',#246,.T.);
#186=FACE_OUTER_BOUND('',#247,.T.);
#187=FACE_OUTER_BOUND('',#248,.T.);
#188=FACE_OUTER_BOUND('',#249,.T.);
#189=FACE_OUTER_BOUND('',#250,.T.);
#190=FACE_OUTER_BOUND('',#251,.T.);
#191=FACE_OUTER_BOUND('',#252,.T.);
#192=FACE_OUTER_BOUND('',#253,.T.);
#193=FACE_OUTER_BOUND('',#254,.T.);
#194=FACE_OUTER_BOUND('',#255,.T.);
#195=FACE_OUTER_BOUND('',#256,.T.);
#196=FACE_OUTER_BOUND('',#257,.T.);
#197=FACE_OUTER_BOUND('',#258,.T.);
#198=FACE_OUTER_BOUND('',#259,.T.);
#199=FACE_OUTER_BOUND('',#260,.T.);
#200=FACE_OUTER_BOUND('',#265,.T.);
#201=FACE_OUTER_BOUND('',#267,.T.);
#202=FACE_OUTER_BOUND('',#268,.T.);
#203=FACE_OUTER_BOUND('',#269,.T.);
#204=FACE_OUTER_BOUND('',#270,.T.);
#205=FACE_OUTER_BOUND('',#271,.T.);
#206=FACE_OUTER_BOUND('',#272,.T.);
#207=FACE_OUTER_BOUND('',#273,.T.);
#208=FACE_OUTER_BOUND('',#274,.T.);
#209=FACE_OUTER_BOUND('',#275,.T.);
#210=FACE_OUTER_BOUND('',#276,.T.);
#211=FACE_OUTER_BOUND('',#277,.T.);
#212=FACE_OUTER_BOUND('',#278,.T.);
#213=FACE_OUTER_BOUND('',#279,.T.);
#214=FACE_OUTER_BOUND('',#280,.T.);
#215=FACE_OUTER_BOUND('',#281,.T.);
#216=FACE_OUTER_BOUND('',#282,.T.);
#217=FACE_OUTER_BOUND('',#283,.T.);
#218=FACE_OUTER_BOUND('',#285,.T.);
#219=FACE_OUTER_BOUND('',#286,.T.);
#220=FACE_OUTER_BOUND('',#287,.T.);
#221=FACE_OUTER_BOUND('',#288,.T.);
#222=EDGE_LOOP('',(#710,#711,#712,#713));
#223=EDGE_LOOP('',(#714,#715,#716,#717,#718,#719,#720,#721));
#224=EDGE_LOOP('',(#722,#723,#724,#725,#726,#727));
#225=EDGE_LOOP('',(#728,#729,#730,#731));
#226=EDGE_LOOP('',(#732,#733,#734,#735));
#227=EDGE_LOOP('',(#736,#737,#738,#739));
#228=EDGE_LOOP('',(#740,#741,#742,#743,#744,#745,#746,#747));
#229=EDGE_LOOP('',(#748,#749,#750,#751,#752,#753,#754,#755));
#230=EDGE_LOOP('',(#756,#757,#758,#759));
#231=EDGE_LOOP('',(#760,#761,#762,#763,#764));
#232=EDGE_LOOP('',(#765,#766,#767,#768));
#233=EDGE_LOOP('',(#769,#770,#771,#772,#773));
#234=EDGE_LOOP('',(#774,#775,#776,#777));
#235=EDGE_LOOP('',(#778,#779,#780,#781));
#236=EDGE_LOOP('',(#782,#783,#784,#785,#786,#787));
#237=EDGE_LOOP('',(#788,#789,#790,#791));
#238=EDGE_LOOP('',(#792,#793,#794,#795));
#239=EDGE_LOOP('',(#796,#797,#798,#799,#800,#801));
#240=EDGE_LOOP('',(#802,#803,#804,#805,#806,#807));
#241=EDGE_LOOP('',(#808,#809,#810,#811));
#242=EDGE_LOOP('',(#812,#813,#814,#815));
#243=EDGE_LOOP('',(#816,#817,#818,#819,#820));
#244=EDGE_LOOP('',(#821,#822,#823,#824));
#245=EDGE_LOOP('',(#825,#826,#827,#828));
#246=EDGE_LOOP('',(#829,#830,#831,#832));
#247=EDGE_LOOP('',(#833,#834,#835,#836));
#248=EDGE_LOOP('',(#837,#838,#839,#840));
#249=EDGE_LOOP('',(#841,#842,#843,#844,#845,#846));
#250=EDGE_LOOP('',(#847,#848,#849,#850));
#251=EDGE_LOOP('',(#851,#852,#853,#854,#855,#856));
#252=EDGE_LOOP('',(#857,#858,#859,#860,#861,#862));
#253=EDGE_LOOP('',(#863,#864,#865,#866));
#254=EDGE_LOOP('',(#867,#868,#869,#870,#871,#872));
#255=EDGE_LOOP('',(#873,#874,#875,#876));
#256=EDGE_LOOP('',(#877,#878,#879,#880,#881,#882,#883));
#257=EDGE_LOOP('',(#884,#885,#886,#887,#888));
#258=EDGE_LOOP('',(#889,#890,#891,#892,#893,#894));
#259=EDGE_LOOP('',(#895,#896,#897,#898));
#260=EDGE_LOOP('',(#899,#900,#901,#902,#903,#904,#905,#906,#907,#908,#909,
#910,#911,#912,#913,#914));
#261=EDGE_LOOP('',(#915));
#262=EDGE_LOOP('',(#916));
#263=EDGE_LOOP('',(#917));
#264=EDGE_LOOP('',(#918,#919,#920,#921));
#265=EDGE_LOOP('',(#922,#923,#924,#925));
#266=EDGE_LOOP('',(#926,#927,#928,#929));
#267=EDGE_LOOP('',(#930));
#268=EDGE_LOOP('',(#931));
#269=EDGE_LOOP('',(#932));
#270=EDGE_LOOP('',(#933));
#271=EDGE_LOOP('',(#934));
#272=EDGE_LOOP('',(#935));
#273=EDGE_LOOP('',(#936,#937,#938,#939,#940,#941));
#274=EDGE_LOOP('',(#942,#943,#944,#945,#946,#947));
#275=EDGE_LOOP('',(#948,#949,#950,#951));
#276=EDGE_LOOP('',(#952,#953,#954,#955));
#277=EDGE_LOOP('',(#956,#957,#958,#959));
#278=EDGE_LOOP('',(#960,#961,#962,#963,#964,#965,#966,#967));
#279=EDGE_LOOP('',(#968,#969,#970,#971));
#280=EDGE_LOOP('',(#972,#973,#974,#975));
#281=EDGE_LOOP('',(#976,#977,#978,#979));
#282=EDGE_LOOP('',(#980,#981,#982,#983));
#283=EDGE_LOOP('',(#984,#985,#986,#987));
#284=EDGE_LOOP('',(#988,#989,#990,#991));
#285=EDGE_LOOP('',(#992,#993,#994,#995));
#286=EDGE_LOOP('',(#996,#997,#998,#999));
#287=EDGE_LOOP('',(#1000,#1001,#1002,#1003));
#288=EDGE_LOOP('',(#1004,#1005,#1006,#1007));
#289=LINE('',#1560,#372);
#290=LINE('',#1574,#373);
#291=LINE('',#1583,#374);
#292=LINE('',#1590,#375);
#293=LINE('',#1600,#376);
#294=LINE('',#1603,#377);
#295=LINE('',#1605,#378);
#296=LINE('',#1612,#379);
#297=LINE('',#1628,#380);
#298=LINE('',#1643,#381);
#299=LINE('',#1646,#382);
#300=LINE('',#1649,#383);
#301=LINE('',#1653,#384);
#302=LINE('',#1655,#385);
#303=LINE('',#1657,#386);
#304=LINE('',#1659,#387);
#305=LINE('',#1661,#388);
#306=LINE('',#1662,#389);
#307=LINE('',#1667,#390);
#308=LINE('',#1671,#391);
#309=LINE('',#1675,#392);
#310=LINE('',#1679,#393);
#311=LINE('',#1681,#394);
#312=LINE('',#1683,#395);
#313=LINE('',#1684,#396);
#314=LINE('',#1692,#397);
#315=LINE('',#1701,#398);
#316=LINE('',#1707,#399);
#317=LINE('',#1711,#400);
#318=LINE('',#1713,#401);
#319=LINE('',#1715,#402);
#320=LINE('',#1720,#403);
#321=LINE('',#1724,#404);
#322=LINE('',#1727,#405);
#323=LINE('',#1728,#406);
#324=LINE('',#1731,#407);
#325=LINE('',#1732,#408);
#326=LINE('',#1740,#409);
#327=LINE('',#1748,#410);
#328=LINE('',#1754,#411);
#329=LINE('',#1757,#412);
#330=LINE('',#1761,#413);
#331=LINE('',#1762,#414);
#332=LINE('',#1765,#415);
#333=LINE('',#1766,#416);
#334=LINE('',#1769,#417);
#335=LINE('',#1770,#418);
#336=LINE('',#1773,#419);
#337=LINE('',#1790,#420);
#338=LINE('',#1792,#421);
#339=LINE('',#1793,#422);
#340=LINE('',#1813,#423);
#341=LINE('',#1815,#424);
#342=LINE('',#1837,#425);
#343=LINE('',#1839,#426);
#344=LINE('',#1846,#427);
#345=LINE('',#1861,#428);
#346=LINE('',#1863,#429);
#347=LINE('',#1866,#430);
#348=LINE('',#1868,#431);
#349=LINE('',#1870,#432);
#350=LINE('',#1871,#433);
#351=LINE('',#1889,#434);
#352=LINE('',#1891,#435);
#353=LINE('',#1893,#436);
#354=LINE('',#1895,#437);
#355=LINE('',#1897,#438);
#356=LINE('',#1901,#439);
#357=LINE('',#1903,#440);
#358=LINE('',#1904,#441);
#359=LINE('',#1907,#442);
#360=LINE('',#1908,#443);
#361=LINE('',#1911,#444);
#362=LINE('',#1912,#445);
#363=LINE('',#1914,#446);
#364=LINE('',#1918,#447);
#365=LINE('',#1920,#448);
#366=LINE('',#1922,#449);
#367=LINE('',#1923,#450);
#368=LINE('',#1925,#451);
#369=LINE('',#1926,#452);
#370=LINE('',#1928,#453);
#371=LINE('',#1930,#454);
#372=VECTOR('',#1236,10.);
#373=VECTOR('',#1237,10.);
#374=VECTOR('',#1240,10.);
#375=VECTOR('',#1241,10.);
#376=VECTOR('',#1242,10.);
#377=VECTOR('',#1243,10.);
#378=VECTOR('',#1244,10.);
#379=VECTOR('',#1251,10.);
#380=VECTOR('',#1254,10.);
#381=VECTOR('',#1257,20.);
#382=VECTOR('',#1260,20.);
#383=VECTOR('',#1263,10.);
#384=VECTOR('',#1268,10.);
#385=VECTOR('',#1269,10.);
#386=VECTOR('',#1270,10.);
#387=VECTOR('',#1271,10.);
#388=VECTOR('',#1272,10.);
#389=VECTOR('',#1273,10.);
#390=VECTOR('',#1278,10.);
#391=VECTOR('',#1281,10.);
#392=VECTOR('',#1284,10.);
#393=VECTOR('',#1287,10.);
#394=VECTOR('',#1288,10.);
#395=VECTOR('',#1289,10.);
#396=VECTOR('',#1290,10.);
#397=VECTOR('',#1301,10.);
#398=VECTOR('',#1312,20.);
#399=VECTOR('',#1319,20.);
#400=VECTOR('',#1324,10.);
#401=VECTOR('',#1325,10.);
#402=VECTOR('',#1326,10.);
#403=VECTOR('',#1333,10.);
#404=VECTOR('',#1338,10.);
#405=VECTOR('',#1341,10.);
#406=VECTOR('',#1342,10.);
#407=VECTOR('',#1345,10.);
#408=VECTOR('',#1346,10.);
#409=VECTOR('',#1357,10.);
#410=VECTOR('',#1368,10.);
#411=VECTOR('',#1377,10.);
#412=VECTOR('',#1380,10.);
#413=VECTOR('',#1385,10.);
#414=VECTOR('',#1386,10.);
#415=VECTOR('',#1389,10.);
#416=VECTOR('',#1390,10.);
#417=VECTOR('',#1395,10.);
#418=VECTOR('',#1396,10.);
#419=VECTOR('',#1399,10.);
#420=VECTOR('',#1404,10.);
#421=VECTOR('',#1407,10.);
#422=VECTOR('',#1408,10.);
#423=VECTOR('',#1417,10.);
#424=VECTOR('',#1420,10.);
#425=VECTOR('',#1429,10.);
#426=VECTOR('',#1432,10.);
#427=VECTOR('',#1441,2.5);
#428=VECTOR('',#1462,10.);
#429=VECTOR('',#1465,10.);
#430=VECTOR('',#1466,10.);
#431=VECTOR('',#1467,10.);
#432=VECTOR('',#1468,10.);
#433=VECTOR('',#1469,10.);
#434=VECTOR('',#1494,2.5);
#435=VECTOR('',#1497,2.5);
#436=VECTOR('',#1500,1.5);
#437=VECTOR('',#1503,1.5);
#438=VECTOR('',#1506,2.5);
#439=VECTOR('',#1511,10.);
#440=VECTOR('',#1512,10.);
#441=VECTOR('',#1513,10.);
#442=VECTOR('',#1516,10.);
#443=VECTOR('',#1517,10.);
#444=VECTOR('',#1520,10.);
#445=VECTOR('',#1521,10.);
#446=VECTOR('',#1524,10.);
#447=VECTOR('',#1527,10.);
#448=VECTOR('',#1528,10.);
#449=VECTOR('',#1529,10.);
#450=VECTOR('',#1530,10.);
#451=VECTOR('',#1533,10.);
#452=VECTOR('',#1534,10.);
#453=VECTOR('',#1537,10.);
#454=VECTOR('',#1540,10.);
#455=B_SPLINE_CURVE_WITH_KNOTS('',3,(#1547,#1548,#1549,#1550,#1551,#1552,
#1553,#1554,#1555,#1556,#1557,#1558),.UNSPECIFIED.,.F.,.F.,(4,2,2,2,2,4),
(0.415504359007629,0.526946840113196,0.653242285488433,0.74252463441121,
0.774103561809655,0.801894437895948),.UNSPECIFIED.);
#456=B_SPLINE_CURVE_WITH_KNOTS('',3,(#1562,#1563,#1564,#1565,#1566,#1567,
#1568,#1569,#1570,#1571,#1572,#1573),.UNSPECIFIED.,.F.,.F.,(4,2,2,2,2,4),
(0.801894437895949,0.829685313982243,0.861264241380687,0.950546590303465,
1.0768420356787,1.18828451678427),.UNSPECIFIED.);
#457=B_SPLINE_CURVE_WITH_KNOTS('',3,(#1578,#1579,#1580,#1581),
 .UNSPECIFIED.,.F.,.F.,(4,4),(-0.35533504915446,-0.329504164099494),
 .UNSPECIFIED.);
#458=B_SPLINE_CURVE_WITH_KNOTS('',3,(#1585,#1586,#1587,#1588),
 .UNSPECIFIED.,.F.,.F.,(4,4),(0.329504164099495,0.355335049154461),
 .UNSPECIFIED.);
#459=B_SPLINE_CURVE_WITH_KNOTS('',3,(#1591,#1592,#1593,#1594),
 .UNSPECIFIED.,.F.,.F.,(4,4),(-0.355335049154458,-0.329504164099495),
 .UNSPECIFIED.);
#460=B_SPLINE_CURVE_WITH_KNOTS('',3,(#1596,#1597,#1598,#1599),
 .UNSPECIFIED.,.F.,.F.,(4,4),(0.329504164099495,0.355335049154458),
 .UNSPECIFIED.);
#461=B_SPLINE_CURVE_WITH_KNOTS('',3,(#1615,#1616,#1617,#1618,#1619,#1620,
#1621,#1622,#1623,#1624,#1625,#1626),.UNSPECIFIED.,.F.,.F.,(4,2,2,2,2,4),
(0.801894437895946,0.82968531398224,0.861264241380685,0.950546590303463,
1.0768420356787,1.18828451678426),.UNSPECIFIED.);
#462=B_SPLINE_CURVE_WITH_KNOTS('',3,(#1629,#1630,#1631,#1632,#1633,#1634,
#1635,#1636,#1637,#1638,#1639,#1640),.UNSPECIFIED.,.F.,.F.,(4,2,2,2,2,4),
(0.415504359007628,0.526946840113194,0.653242285488431,0.742524634411208,
0.774103561809653,0.801894437895947),.UNSPECIFIED.);
#463=B_SPLINE_CURVE_WITH_KNOTS('',3,(#1778,#1779,#1780,#1781,#1782,#1783,
#1784,#1785,#1786,#1787,#1788),.UNSPECIFIED.,.F.,.F.,(4,2,3,2,4),(1.80281141361646,
1.84929577943523,1.9589155098353,2.06853524023537,2.11501960605413),
 .UNSPECIFIED.);
#464=B_SPLINE_CURVE_WITH_KNOTS('',3,(#1801,#1802,#1803,#1804,#1805,#1806,
#1807,#1808,#1809,#1810,#1811),.UNSPECIFIED.,.F.,.F.,(4,2,3,2,4),(1.7421506500973,
1.74622973219298,1.85127519263787,1.95632065308276,1.96039973517844),
 .UNSPECIFIED.);
#465=B_SPLINE_CURVE_WITH_KNOTS('',3,(#1823,#1824,#1825,#1826,#1827,#1828),
 .UNSPECIFIED.,.F.,.F.,(4,2,4),(1.80281141361655,1.84929577943537,1.95891550983544),
 .UNSPECIFIED.);
#466=B_SPLINE_CURVE_WITH_KNOTS('',3,(#1830,#1831,#1832,#1833,#1834,#1835),
 .UNSPECIFIED.,.F.,.F.,(4,2,4),(1.95891550983544,2.06853524023552,2.11501960605434),
 .UNSPECIFIED.);
#467=VERTEX_POINT('',#1545);
#468=VERTEX_POINT('',#1546);
#469=VERTEX_POINT('',#1559);
#470=VERTEX_POINT('',#1561);
#471=VERTEX_POINT('',#1576);
#472=VERTEX_POINT('',#1577);
#473=VERTEX_POINT('',#1582);
#474=VERTEX_POINT('',#1584);
#475=VERTEX_POINT('',#1589);
#476=VERTEX_POINT('',#1595);
#477=VERTEX_POINT('',#1601);
#478=VERTEX_POINT('',#1602);
#479=VERTEX_POINT('',#1604);
#480=VERTEX_POINT('',#1606);
#481=VERTEX_POINT('',#1608);
#482=VERTEX_POINT('',#1610);
#483=VERTEX_POINT('',#1614);
#484=VERTEX_POINT('',#1627);
#485=VERTEX_POINT('',#1642);
#486=VERTEX_POINT('',#1644);
#487=VERTEX_POINT('',#1648);
#488=VERTEX_POINT('',#1652);
#489=VERTEX_POINT('',#1654);
#490=VERTEX_POINT('',#1656);
#491=VERTEX_POINT('',#1658);
#492=VERTEX_POINT('',#1660);
#493=VERTEX_POINT('',#1664);
#494=VERTEX_POINT('',#1666);
#495=VERTEX_POINT('',#1668);
#496=VERTEX_POINT('',#1670);
#497=VERTEX_POINT('',#1672);
#498=VERTEX_POINT('',#1674);
#499=VERTEX_POINT('',#1677);
#500=VERTEX_POINT('',#1678);
#501=VERTEX_POINT('',#1680);
#502=VERTEX_POINT('',#1682);
#503=VERTEX_POINT('',#1686);
#504=VERTEX_POINT('',#1690);
#505=VERTEX_POINT('',#1694);
#506=VERTEX_POINT('',#1698);
#507=VERTEX_POINT('',#1700);
#508=VERTEX_POINT('',#1704);
#509=VERTEX_POINT('',#1706);
#510=VERTEX_POINT('',#1710);
#511=VERTEX_POINT('',#1712);
#512=VERTEX_POINT('',#1714);
#513=VERTEX_POINT('',#1718);
#514=VERTEX_POINT('',#1722);
#515=VERTEX_POINT('',#1726);
#516=VERTEX_POINT('',#1730);
#517=VERTEX_POINT('',#1734);
#518=VERTEX_POINT('',#1736);
#519=VERTEX_POINT('',#1742);
#520=VERTEX_POINT('',#1746);
#521=VERTEX_POINT('',#1750);
#522=VERTEX_POINT('',#1756);
#523=VERTEX_POINT('',#1760);
#524=VERTEX_POINT('',#1764);
#525=VERTEX_POINT('',#1772);
#526=VERTEX_POINT('',#1776);
#527=VERTEX_POINT('',#1777);
#528=VERTEX_POINT('',#1789);
#529=VERTEX_POINT('',#1795);
#530=VERTEX_POINT('',#1799);
#531=VERTEX_POINT('',#1800);
#532=VERTEX_POINT('',#1812);
#533=VERTEX_POINT('',#1817);
#534=VERTEX_POINT('',#1821);
#535=VERTEX_POINT('',#1822);
#536=VERTEX_POINT('',#1829);
#537=VERTEX_POINT('',#1836);
#538=VERTEX_POINT('',#1843);
#539=VERTEX_POINT('',#1845);
#540=VERTEX_POINT('',#1852);
#541=VERTEX_POINT('',#1855);
#542=VERTEX_POINT('',#1857);
#543=VERTEX_POINT('',#1859);
#544=VERTEX_POINT('',#1864);
#545=VERTEX_POINT('',#1865);
#546=VERTEX_POINT('',#1867);
#547=VERTEX_POINT('',#1869);
#548=VERTEX_POINT('',#1873);
#549=VERTEX_POINT('',#1876);
#550=VERTEX_POINT('',#1879);
#551=VERTEX_POINT('',#1882);
#552=VERTEX_POINT('',#1885);
#553=VERTEX_POINT('',#1900);
#554=VERTEX_POINT('',#1902);
#555=VERTEX_POINT('',#1906);
#556=VERTEX_POINT('',#1910);
#557=VERTEX_POINT('',#1916);
#558=VERTEX_POINT('',#1917);
#559=VERTEX_POINT('',#1919);
#560=VERTEX_POINT('',#1921);
#561=EDGE_CURVE('',#467,#468,#455,.T.);
#562=EDGE_CURVE('',#469,#467,#289,.T.);
#563=EDGE_CURVE('',#470,#469,#456,.T.);
#564=EDGE_CURVE('',#468,#470,#290,.T.);
#565=EDGE_CURVE('',#471,#472,#457,.T.);
#566=EDGE_CURVE('',#473,#471,#291,.T.);
#567=EDGE_CURVE('',#474,#473,#458,.T.);
#568=EDGE_CURVE('',#475,#474,#292,.T.);
#569=EDGE_CURVE('',#469,#475,#459,.T.);
#570=EDGE_CURVE('',#476,#467,#460,.T.);
#571=EDGE_CURVE('',#472,#476,#293,.T.);
#572=EDGE_CURVE('',#477,#478,#294,.T.);
#573=EDGE_CURVE('',#479,#477,#295,.T.);
#574=EDGE_CURVE('',#480,#479,#109,.T.);
#575=EDGE_CURVE('',#481,#480,#110,.T.);
#576=EDGE_CURVE('',#482,#481,#111,.T.);
#577=EDGE_CURVE('',#478,#482,#296,.T.);
#578=EDGE_CURVE('',#483,#471,#461,.T.);
#579=EDGE_CURVE('',#484,#483,#297,.T.);
#580=EDGE_CURVE('',#473,#484,#462,.T.);
#581=EDGE_CURVE('',#485,#480,#298,.T.);
#582=EDGE_CURVE('',#486,#485,#112,.T.);
#583=EDGE_CURVE('',#481,#486,#299,.T.);
#584=EDGE_CURVE('',#479,#487,#300,.T.);
#585=EDGE_CURVE('',#487,#485,#113,.T.);
#586=EDGE_CURVE('',#488,#477,#301,.T.);
#587=EDGE_CURVE('',#488,#489,#302,.T.);
#588=EDGE_CURVE('',#490,#489,#303,.T.);
#589=EDGE_CURVE('',#490,#491,#304,.T.);
#590=EDGE_CURVE('',#492,#491,#305,.T.);
#591=EDGE_CURVE('',#487,#492,#306,.T.);
#592=EDGE_CURVE('',#493,#476,#114,.T.);
#593=EDGE_CURVE('',#494,#493,#307,.T.);
#594=EDGE_CURVE('',#495,#494,#115,.T.);
#595=EDGE_CURVE('',#496,#495,#308,.T.);
#596=EDGE_CURVE('',#497,#496,#116,.T.);
#597=EDGE_CURVE('',#498,#497,#309,.T.);
#598=EDGE_CURVE('',#472,#498,#117,.T.);
#599=EDGE_CURVE('',#499,#500,#310,.T.);
#600=EDGE_CURVE('',#500,#501,#311,.T.);
#601=EDGE_CURVE('',#501,#502,#312,.T.);
#602=EDGE_CURVE('',#502,#499,#313,.T.);
#603=EDGE_CURVE('',#468,#503,#118,.T.);
#604=EDGE_CURVE('',#493,#503,#119,.T.);
#605=EDGE_CURVE('',#504,#470,#120,.T.);
#606=EDGE_CURVE('',#504,#503,#314,.T.);
#607=EDGE_CURVE('',#475,#505,#121,.T.);
#608=EDGE_CURVE('',#505,#504,#122,.T.);
#609=EDGE_CURVE('',#489,#506,#123,.T.);
#610=EDGE_CURVE('',#506,#507,#315,.T.);
#611=EDGE_CURVE('',#507,#490,#124,.T.);
#612=EDGE_CURVE('',#508,#506,#125,.T.);
#613=EDGE_CURVE('',#509,#508,#316,.T.);
#614=EDGE_CURVE('',#507,#509,#126,.T.);
#615=EDGE_CURVE('',#510,#489,#317,.T.);
#616=EDGE_CURVE('',#511,#510,#318,.T.);
#617=EDGE_CURVE('',#512,#511,#319,.T.);
#618=EDGE_CURVE('',#508,#512,#127,.T.);
#619=EDGE_CURVE('',#513,#509,#128,.T.);
#620=EDGE_CURVE('',#512,#513,#320,.T.);
#621=EDGE_CURVE('',#486,#514,#129,.T.);
#622=EDGE_CURVE('',#514,#482,#321,.T.);
#623=EDGE_CURVE('',#515,#492,#322,.T.);
#624=EDGE_CURVE('',#514,#515,#323,.T.);
#625=EDGE_CURVE('',#513,#516,#324,.T.);
#626=EDGE_CURVE('',#491,#516,#325,.T.);
#627=EDGE_CURVE('',#517,#495,#130,.T.);
#628=EDGE_CURVE('',#494,#518,#131,.T.);
#629=EDGE_CURVE('',#518,#517,#132,.T.);
#630=EDGE_CURVE('',#503,#518,#326,.T.);
#631=EDGE_CURVE('',#498,#519,#133,.T.);
#632=EDGE_CURVE('',#519,#483,#134,.T.);
#633=EDGE_CURVE('',#497,#520,#135,.T.);
#634=EDGE_CURVE('',#520,#519,#327,.T.);
#635=EDGE_CURVE('',#496,#521,#136,.T.);
#636=EDGE_CURVE('',#521,#520,#137,.T.);
#637=EDGE_CURVE('',#517,#521,#328,.T.);
#638=EDGE_CURVE('',#519,#522,#329,.T.);
#639=EDGE_CURVE('',#484,#522,#138,.T.);
#640=EDGE_CURVE('',#523,#520,#330,.T.);
#641=EDGE_CURVE('',#522,#523,#331,.T.);
#642=EDGE_CURVE('',#521,#524,#332,.T.);
#643=EDGE_CURVE('',#524,#512,#333,.T.);
#644=EDGE_CURVE('',#523,#511,#139,.T.);
#645=EDGE_CURVE('',#488,#517,#334,.T.);
#646=EDGE_CURVE('',#524,#488,#335,.T.);
#647=EDGE_CURVE('',#518,#525,#336,.T.);
#648=EDGE_CURVE('',#510,#525,#140,.T.);
#649=EDGE_CURVE('',#526,#527,#463,.T.);
#650=EDGE_CURVE('',#527,#528,#337,.T.);
#651=EDGE_CURVE('',#528,#525,#141,.T.);
#652=EDGE_CURVE('',#525,#504,#338,.T.);
#653=EDGE_CURVE('',#505,#526,#339,.T.);
#654=EDGE_CURVE('',#529,#510,#142,.T.);
#655=EDGE_CURVE('',#528,#529,#143,.T.);
#656=EDGE_CURVE('',#530,#531,#464,.T.);
#657=EDGE_CURVE('',#531,#532,#340,.T.);
#658=EDGE_CURVE('',#532,#511,#144,.T.);
#659=EDGE_CURVE('',#529,#530,#341,.T.);
#660=EDGE_CURVE('',#533,#523,#145,.T.);
#661=EDGE_CURVE('',#532,#533,#146,.T.);
#662=EDGE_CURVE('',#534,#535,#465,.T.);
#663=EDGE_CURVE('',#535,#536,#466,.T.);
#664=EDGE_CURVE('',#536,#537,#342,.T.);
#665=EDGE_CURVE('',#537,#522,#147,.T.);
#666=EDGE_CURVE('',#533,#534,#343,.T.);
#667=EDGE_CURVE('',#537,#474,#148,.T.);
#668=EDGE_CURVE('',#538,#526,#149,.T.);
#669=EDGE_CURVE('',#538,#539,#344,.T.);
#670=EDGE_CURVE('',#539,#539,#150,.T.);
#671=EDGE_CURVE('',#527,#538,#151,.T.);
#672=EDGE_CURVE('',#536,#534,#152,.T.);
#673=EDGE_CURVE('',#531,#540,#153,.T.);
#674=EDGE_CURVE('',#540,#530,#154,.T.);
#675=EDGE_CURVE('',#541,#541,#155,.T.);
#676=EDGE_CURVE('',#542,#542,#156,.T.);
#677=EDGE_CURVE('',#543,#543,#157,.T.);
#678=EDGE_CURVE('',#516,#515,#345,.T.);
#679=EDGE_CURVE('',#478,#524,#346,.T.);
#680=EDGE_CURVE('',#544,#545,#347,.T.);
#681=EDGE_CURVE('',#545,#546,#348,.T.);
#682=EDGE_CURVE('',#546,#547,#349,.T.);
#683=EDGE_CURVE('',#547,#544,#350,.T.);
#684=EDGE_CURVE('',#548,#548,#158,.T.);
#685=EDGE_CURVE('',#549,#549,#159,.T.);
#686=EDGE_CURVE('',#550,#550,#160,.T.);
#687=EDGE_CURVE('',#551,#551,#161,.T.);
#688=EDGE_CURVE('',#552,#552,#162,.T.);
#689=EDGE_CURVE('',#535,#551,#351,.T.);
#690=EDGE_CURVE('',#540,#552,#352,.T.);
#691=EDGE_CURVE('',#541,#549,#353,.T.);
#692=EDGE_CURVE('',#542,#548,#354,.T.);
#693=EDGE_CURVE('',#543,#550,#355,.T.);
#694=EDGE_CURVE('',#544,#553,#356,.T.);
#695=EDGE_CURVE('',#553,#554,#357,.T.);
#696=EDGE_CURVE('',#545,#554,#358,.T.);
#697=EDGE_CURVE('',#547,#555,#359,.T.);
#698=EDGE_CURVE('',#555,#553,#360,.T.);
#699=EDGE_CURVE('',#546,#556,#361,.T.);
#700=EDGE_CURVE('',#556,#555,#362,.T.);
#701=EDGE_CURVE('',#554,#556,#363,.T.);
#702=EDGE_CURVE('',#557,#558,#364,.T.);
#703=EDGE_CURVE('',#559,#557,#365,.T.);
#704=EDGE_CURVE('',#560,#559,#366,.T.);
#705=EDGE_CURVE('',#558,#560,#367,.T.);
#706=EDGE_CURVE('',#557,#499,#368,.T.);
#707=EDGE_CURVE('',#559,#502,#369,.T.);
#708=EDGE_CURVE('',#558,#500,#370,.T.);
#709=EDGE_CURVE('',#560,#501,#371,.T.);
#710=ORIENTED_EDGE('',*,*,#561,.F.);
#711=ORIENTED_EDGE('',*,*,#562,.F.);
#712=ORIENTED_EDGE('',*,*,#563,.F.);
#713=ORIENTED_EDGE('',*,*,#564,.F.);
#714=ORIENTED_EDGE('',*,*,#565,.F.);
#715=ORIENTED_EDGE('',*,*,#566,.F.);
#716=ORIENTED_EDGE('',*,*,#567,.F.);
#717=ORIENTED_EDGE('',*,*,#568,.F.);
#718=ORIENTED_EDGE('',*,*,#569,.F.);
#719=ORIENTED_EDGE('',*,*,#562,.T.);
#720=ORIENTED_EDGE('',*,*,#570,.F.);
#721=ORIENTED_EDGE('',*,*,#571,.F.);
#722=ORIENTED_EDGE('',*,*,#572,.F.);
#723=ORIENTED_EDGE('',*,*,#573,.F.);
#724=ORIENTED_EDGE('',*,*,#574,.F.);
#725=ORIENTED_EDGE('',*,*,#575,.F.);
#726=ORIENTED_EDGE('',*,*,#576,.F.);
#727=ORIENTED_EDGE('',*,*,#577,.F.);
#728=ORIENTED_EDGE('',*,*,#578,.F.);
#729=ORIENTED_EDGE('',*,*,#579,.F.);
#730=ORIENTED_EDGE('',*,*,#580,.F.);
#731=ORIENTED_EDGE('',*,*,#566,.T.);
#732=ORIENTED_EDGE('',*,*,#575,.T.);
#733=ORIENTED_EDGE('',*,*,#581,.F.);
#734=ORIENTED_EDGE('',*,*,#582,.F.);
#735=ORIENTED_EDGE('',*,*,#583,.F.);
#736=ORIENTED_EDGE('',*,*,#574,.T.);
#737=ORIENTED_EDGE('',*,*,#584,.T.);
#738=ORIENTED_EDGE('',*,*,#585,.T.);
#739=ORIENTED_EDGE('',*,*,#581,.T.);
#740=ORIENTED_EDGE('',*,*,#573,.T.);
#741=ORIENTED_EDGE('',*,*,#586,.F.);
#742=ORIENTED_EDGE('',*,*,#587,.T.);
#743=ORIENTED_EDGE('',*,*,#588,.F.);
#744=ORIENTED_EDGE('',*,*,#589,.T.);
#745=ORIENTED_EDGE('',*,*,#590,.F.);
#746=ORIENTED_EDGE('',*,*,#591,.F.);
#747=ORIENTED_EDGE('',*,*,#584,.F.);
#748=ORIENTED_EDGE('',*,*,#571,.T.);
#749=ORIENTED_EDGE('',*,*,#592,.F.);
#750=ORIENTED_EDGE('',*,*,#593,.F.);
#751=ORIENTED_EDGE('',*,*,#594,.F.);
#752=ORIENTED_EDGE('',*,*,#595,.F.);
#753=ORIENTED_EDGE('',*,*,#596,.F.);
#754=ORIENTED_EDGE('',*,*,#597,.F.);
#755=ORIENTED_EDGE('',*,*,#598,.F.);
#756=ORIENTED_EDGE('',*,*,#599,.T.);
#757=ORIENTED_EDGE('',*,*,#600,.T.);
#758=ORIENTED_EDGE('',*,*,#601,.T.);
#759=ORIENTED_EDGE('',*,*,#602,.T.);
#760=ORIENTED_EDGE('',*,*,#570,.T.);
#761=ORIENTED_EDGE('',*,*,#561,.T.);
#762=ORIENTED_EDGE('',*,*,#603,.T.);
#763=ORIENTED_EDGE('',*,*,#604,.F.);
#764=ORIENTED_EDGE('',*,*,#592,.T.);
#765=ORIENTED_EDGE('',*,*,#564,.T.);
#766=ORIENTED_EDGE('',*,*,#605,.F.);
#767=ORIENTED_EDGE('',*,*,#606,.T.);
#768=ORIENTED_EDGE('',*,*,#603,.F.);
#769=ORIENTED_EDGE('',*,*,#563,.T.);
#770=ORIENTED_EDGE('',*,*,#569,.T.);
#771=ORIENTED_EDGE('',*,*,#607,.T.);
#772=ORIENTED_EDGE('',*,*,#608,.T.);
#773=ORIENTED_EDGE('',*,*,#605,.T.);
#774=ORIENTED_EDGE('',*,*,#609,.T.);
#775=ORIENTED_EDGE('',*,*,#610,.T.);
#776=ORIENTED_EDGE('',*,*,#611,.T.);
#777=ORIENTED_EDGE('',*,*,#588,.T.);
#778=ORIENTED_EDGE('',*,*,#610,.F.);
#779=ORIENTED_EDGE('',*,*,#612,.F.);
#780=ORIENTED_EDGE('',*,*,#613,.F.);
#781=ORIENTED_EDGE('',*,*,#614,.F.);
#782=ORIENTED_EDGE('',*,*,#609,.F.);
#783=ORIENTED_EDGE('',*,*,#615,.F.);
#784=ORIENTED_EDGE('',*,*,#616,.F.);
#785=ORIENTED_EDGE('',*,*,#617,.F.);
#786=ORIENTED_EDGE('',*,*,#618,.F.);
#787=ORIENTED_EDGE('',*,*,#612,.T.);
#788=ORIENTED_EDGE('',*,*,#619,.T.);
#789=ORIENTED_EDGE('',*,*,#613,.T.);
#790=ORIENTED_EDGE('',*,*,#618,.T.);
#791=ORIENTED_EDGE('',*,*,#620,.T.);
#792=ORIENTED_EDGE('',*,*,#576,.T.);
#793=ORIENTED_EDGE('',*,*,#583,.T.);
#794=ORIENTED_EDGE('',*,*,#621,.T.);
#795=ORIENTED_EDGE('',*,*,#622,.T.);
#796=ORIENTED_EDGE('',*,*,#621,.F.);
#797=ORIENTED_EDGE('',*,*,#582,.T.);
#798=ORIENTED_EDGE('',*,*,#585,.F.);
#799=ORIENTED_EDGE('',*,*,#591,.T.);
#800=ORIENTED_EDGE('',*,*,#623,.F.);
#801=ORIENTED_EDGE('',*,*,#624,.F.);
#802=ORIENTED_EDGE('',*,*,#611,.F.);
#803=ORIENTED_EDGE('',*,*,#614,.T.);
#804=ORIENTED_EDGE('',*,*,#619,.F.);
#805=ORIENTED_EDGE('',*,*,#625,.T.);
#806=ORIENTED_EDGE('',*,*,#626,.F.);
#807=ORIENTED_EDGE('',*,*,#589,.F.);
#808=ORIENTED_EDGE('',*,*,#627,.T.);
#809=ORIENTED_EDGE('',*,*,#594,.T.);
#810=ORIENTED_EDGE('',*,*,#628,.T.);
#811=ORIENTED_EDGE('',*,*,#629,.T.);
#812=ORIENTED_EDGE('',*,*,#604,.T.);
#813=ORIENTED_EDGE('',*,*,#630,.T.);
#814=ORIENTED_EDGE('',*,*,#628,.F.);
#815=ORIENTED_EDGE('',*,*,#593,.T.);
#816=ORIENTED_EDGE('',*,*,#565,.T.);
#817=ORIENTED_EDGE('',*,*,#598,.T.);
#818=ORIENTED_EDGE('',*,*,#631,.T.);
#819=ORIENTED_EDGE('',*,*,#632,.T.);
#820=ORIENTED_EDGE('',*,*,#578,.T.);
#821=ORIENTED_EDGE('',*,*,#633,.T.);
#822=ORIENTED_EDGE('',*,*,#634,.T.);
#823=ORIENTED_EDGE('',*,*,#631,.F.);
#824=ORIENTED_EDGE('',*,*,#597,.T.);
#825=ORIENTED_EDGE('',*,*,#635,.T.);
#826=ORIENTED_EDGE('',*,*,#636,.T.);
#827=ORIENTED_EDGE('',*,*,#633,.F.);
#828=ORIENTED_EDGE('',*,*,#596,.T.);
#829=ORIENTED_EDGE('',*,*,#635,.F.);
#830=ORIENTED_EDGE('',*,*,#595,.T.);
#831=ORIENTED_EDGE('',*,*,#627,.F.);
#832=ORIENTED_EDGE('',*,*,#637,.T.);
#833=ORIENTED_EDGE('',*,*,#579,.T.);
#834=ORIENTED_EDGE('',*,*,#632,.F.);
#835=ORIENTED_EDGE('',*,*,#638,.T.);
#836=ORIENTED_EDGE('',*,*,#639,.F.);
#837=ORIENTED_EDGE('',*,*,#634,.F.);
#838=ORIENTED_EDGE('',*,*,#640,.F.);
#839=ORIENTED_EDGE('',*,*,#641,.F.);
#840=ORIENTED_EDGE('',*,*,#638,.F.);
#841=ORIENTED_EDGE('',*,*,#636,.F.);
#842=ORIENTED_EDGE('',*,*,#642,.T.);
#843=ORIENTED_EDGE('',*,*,#643,.T.);
#844=ORIENTED_EDGE('',*,*,#617,.T.);
#845=ORIENTED_EDGE('',*,*,#644,.F.);
#846=ORIENTED_EDGE('',*,*,#640,.T.);
#847=ORIENTED_EDGE('',*,*,#637,.F.);
#848=ORIENTED_EDGE('',*,*,#645,.F.);
#849=ORIENTED_EDGE('',*,*,#646,.F.);
#850=ORIENTED_EDGE('',*,*,#642,.F.);
#851=ORIENTED_EDGE('',*,*,#629,.F.);
#852=ORIENTED_EDGE('',*,*,#647,.T.);
#853=ORIENTED_EDGE('',*,*,#648,.F.);
#854=ORIENTED_EDGE('',*,*,#615,.T.);
#855=ORIENTED_EDGE('',*,*,#587,.F.);
#856=ORIENTED_EDGE('',*,*,#645,.T.);
#857=ORIENTED_EDGE('',*,*,#649,.T.);
#858=ORIENTED_EDGE('',*,*,#650,.T.);
#859=ORIENTED_EDGE('',*,*,#651,.T.);
#860=ORIENTED_EDGE('',*,*,#652,.T.);
#861=ORIENTED_EDGE('',*,*,#608,.F.);
#862=ORIENTED_EDGE('',*,*,#653,.T.);
#863=ORIENTED_EDGE('',*,*,#654,.T.);
#864=ORIENTED_EDGE('',*,*,#648,.T.);
#865=ORIENTED_EDGE('',*,*,#651,.F.);
#866=ORIENTED_EDGE('',*,*,#655,.T.);
#867=ORIENTED_EDGE('',*,*,#656,.T.);
#868=ORIENTED_EDGE('',*,*,#657,.T.);
#869=ORIENTED_EDGE('',*,*,#658,.T.);
#870=ORIENTED_EDGE('',*,*,#616,.T.);
#871=ORIENTED_EDGE('',*,*,#654,.F.);
#872=ORIENTED_EDGE('',*,*,#659,.T.);
#873=ORIENTED_EDGE('',*,*,#660,.T.);
#874=ORIENTED_EDGE('',*,*,#644,.T.);
#875=ORIENTED_EDGE('',*,*,#658,.F.);
#876=ORIENTED_EDGE('',*,*,#661,.T.);
#877=ORIENTED_EDGE('',*,*,#662,.T.);
#878=ORIENTED_EDGE('',*,*,#663,.T.);
#879=ORIENTED_EDGE('',*,*,#664,.T.);
#880=ORIENTED_EDGE('',*,*,#665,.T.);
#881=ORIENTED_EDGE('',*,*,#641,.T.);
#882=ORIENTED_EDGE('',*,*,#660,.F.);
#883=ORIENTED_EDGE('',*,*,#666,.T.);
#884=ORIENTED_EDGE('',*,*,#580,.T.);
#885=ORIENTED_EDGE('',*,*,#639,.T.);
#886=ORIENTED_EDGE('',*,*,#665,.F.);
#887=ORIENTED_EDGE('',*,*,#667,.T.);
#888=ORIENTED_EDGE('',*,*,#567,.T.);
#889=ORIENTED_EDGE('',*,*,#649,.F.);
#890=ORIENTED_EDGE('',*,*,#668,.F.);
#891=ORIENTED_EDGE('',*,*,#669,.T.);
#892=ORIENTED_EDGE('',*,*,#670,.T.);
#893=ORIENTED_EDGE('',*,*,#669,.F.);
#894=ORIENTED_EDGE('',*,*,#671,.F.);
#895=ORIENTED_EDGE('',*,*,#630,.F.);
#896=ORIENTED_EDGE('',*,*,#606,.F.);
#897=ORIENTED_EDGE('',*,*,#652,.F.);
#898=ORIENTED_EDGE('',*,*,#647,.F.);
#899=ORIENTED_EDGE('',*,*,#568,.T.);
#900=ORIENTED_EDGE('',*,*,#667,.F.);
#901=ORIENTED_EDGE('',*,*,#664,.F.);
#902=ORIENTED_EDGE('',*,*,#672,.T.);
#903=ORIENTED_EDGE('',*,*,#666,.F.);
#904=ORIENTED_EDGE('',*,*,#661,.F.);
#905=ORIENTED_EDGE('',*,*,#657,.F.);
#906=ORIENTED_EDGE('',*,*,#673,.T.);
#907=ORIENTED_EDGE('',*,*,#674,.T.);
#908=ORIENTED_EDGE('',*,*,#659,.F.);
#909=ORIENTED_EDGE('',*,*,#655,.F.);
#910=ORIENTED_EDGE('',*,*,#650,.F.);
#911=ORIENTED_EDGE('',*,*,#671,.T.);
#912=ORIENTED_EDGE('',*,*,#668,.T.);
#913=ORIENTED_EDGE('',*,*,#653,.F.);
#914=ORIENTED_EDGE('',*,*,#607,.F.);
#915=ORIENTED_EDGE('',*,*,#675,.T.);
#916=ORIENTED_EDGE('',*,*,#676,.T.);
#917=ORIENTED_EDGE('',*,*,#677,.T.);
#918=ORIENTED_EDGE('',*,*,#623,.T.);
#919=ORIENTED_EDGE('',*,*,#590,.T.);
#920=ORIENTED_EDGE('',*,*,#626,.T.);
#921=ORIENTED_EDGE('',*,*,#678,.T.);
#922=ORIENTED_EDGE('',*,*,#572,.T.);
#923=ORIENTED_EDGE('',*,*,#679,.T.);
#924=ORIENTED_EDGE('',*,*,#646,.T.);
#925=ORIENTED_EDGE('',*,*,#586,.T.);
#926=ORIENTED_EDGE('',*,*,#680,.T.);
#927=ORIENTED_EDGE('',*,*,#681,.T.);
#928=ORIENTED_EDGE('',*,*,#682,.T.);
#929=ORIENTED_EDGE('',*,*,#683,.T.);
#930=ORIENTED_EDGE('',*,*,#684,.F.);
#931=ORIENTED_EDGE('',*,*,#685,.F.);
#932=ORIENTED_EDGE('',*,*,#686,.F.);
#933=ORIENTED_EDGE('',*,*,#687,.F.);
#934=ORIENTED_EDGE('',*,*,#688,.F.);
#935=ORIENTED_EDGE('',*,*,#670,.F.);
#936=ORIENTED_EDGE('',*,*,#662,.F.);
#937=ORIENTED_EDGE('',*,*,#672,.F.);
#938=ORIENTED_EDGE('',*,*,#663,.F.);
#939=ORIENTED_EDGE('',*,*,#689,.T.);
#940=ORIENTED_EDGE('',*,*,#687,.T.);
#941=ORIENTED_EDGE('',*,*,#689,.F.);
#942=ORIENTED_EDGE('',*,*,#656,.F.);
#943=ORIENTED_EDGE('',*,*,#674,.F.);
#944=ORIENTED_EDGE('',*,*,#690,.T.);
#945=ORIENTED_EDGE('',*,*,#688,.T.);
#946=ORIENTED_EDGE('',*,*,#690,.F.);
#947=ORIENTED_EDGE('',*,*,#673,.F.);
#948=ORIENTED_EDGE('',*,*,#675,.F.);
#949=ORIENTED_EDGE('',*,*,#691,.T.);
#950=ORIENTED_EDGE('',*,*,#685,.T.);
#951=ORIENTED_EDGE('',*,*,#691,.F.);
#952=ORIENTED_EDGE('',*,*,#676,.F.);
#953=ORIENTED_EDGE('',*,*,#692,.T.);
#954=ORIENTED_EDGE('',*,*,#684,.T.);
#955=ORIENTED_EDGE('',*,*,#692,.F.);
#956=ORIENTED_EDGE('',*,*,#677,.F.);
#957=ORIENTED_EDGE('',*,*,#693,.T.);
#958=ORIENTED_EDGE('',*,*,#686,.T.);
#959=ORIENTED_EDGE('',*,*,#693,.F.);
#960=ORIENTED_EDGE('',*,*,#577,.T.);
#961=ORIENTED_EDGE('',*,*,#622,.F.);
#962=ORIENTED_EDGE('',*,*,#624,.T.);
#963=ORIENTED_EDGE('',*,*,#678,.F.);
#964=ORIENTED_EDGE('',*,*,#625,.F.);
#965=ORIENTED_EDGE('',*,*,#620,.F.);
#966=ORIENTED_EDGE('',*,*,#643,.F.);
#967=ORIENTED_EDGE('',*,*,#679,.F.);
#968=ORIENTED_EDGE('',*,*,#680,.F.);
#969=ORIENTED_EDGE('',*,*,#694,.T.);
#970=ORIENTED_EDGE('',*,*,#695,.T.);
#971=ORIENTED_EDGE('',*,*,#696,.F.);
#972=ORIENTED_EDGE('',*,*,#683,.F.);
#973=ORIENTED_EDGE('',*,*,#697,.T.);
#974=ORIENTED_EDGE('',*,*,#698,.T.);
#975=ORIENTED_EDGE('',*,*,#694,.F.);
#976=ORIENTED_EDGE('',*,*,#682,.F.);
#977=ORIENTED_EDGE('',*,*,#699,.T.);
#978=ORIENTED_EDGE('',*,*,#700,.T.);
#979=ORIENTED_EDGE('',*,*,#697,.F.);
#980=ORIENTED_EDGE('',*,*,#681,.F.);
#981=ORIENTED_EDGE('',*,*,#696,.T.);
#982=ORIENTED_EDGE('',*,*,#701,.T.);
#983=ORIENTED_EDGE('',*,*,#699,.F.);
#984=ORIENTED_EDGE('',*,*,#701,.F.);
#985=ORIENTED_EDGE('',*,*,#695,.F.);
#986=ORIENTED_EDGE('',*,*,#698,.F.);
#987=ORIENTED_EDGE('',*,*,#700,.F.);
#988=ORIENTED_EDGE('',*,*,#702,.F.);
#989=ORIENTED_EDGE('',*,*,#703,.F.);
#990=ORIENTED_EDGE('',*,*,#704,.F.);
#991=ORIENTED_EDGE('',*,*,#705,.F.);
#992=ORIENTED_EDGE('',*,*,#703,.T.);
#993=ORIENTED_EDGE('',*,*,#706,.T.);
#994=ORIENTED_EDGE('',*,*,#602,.F.);
#995=ORIENTED_EDGE('',*,*,#707,.F.);
#996=ORIENTED_EDGE('',*,*,#702,.T.);
#997=ORIENTED_EDGE('',*,*,#708,.T.);
#998=ORIENTED_EDGE('',*,*,#599,.F.);
#999=ORIENTED_EDGE('',*,*,#706,.F.);
#1000=ORIENTED_EDGE('',*,*,#704,.T.);
#1001=ORIENTED_EDGE('',*,*,#707,.T.);
#1002=ORIENTED_EDGE('',*,*,#601,.F.);
#1003=ORIENTED_EDGE('',*,*,#709,.F.);
#1004=ORIENTED_EDGE('',*,*,#705,.T.);
#1005=ORIENTED_EDGE('',*,*,#709,.T.);
#1006=ORIENTED_EDGE('',*,*,#600,.F.);
#1007=ORIENTED_EDGE('',*,*,#708,.F.);
#1008=PLANE('',#1119);
#1009=PLANE('',#1120);
#1010=PLANE('',#1124);
#1011=PLANE('',#1129);
#1012=PLANE('',#1130);
#1013=PLANE('',#1149);
#1014=PLANE('',#1155);
#1015=PLANE('',#1156);
#1016=PLANE('',#1173);
#1017=PLANE('',#1176);
#1018=PLANE('',#1197);
#1019=PLANE('',#1198);
#1020=PLANE('',#1205);
#1021=PLANE('',#1206);
#1022=PLANE('',#1208);
#1023=PLANE('',#1210);
#1024=PLANE('',#1212);
#1025=PLANE('',#1214);
#1026=PLANE('',#1216);
#1027=PLANE('',#1222);
#1028=PLANE('',#1223);
#1029=PLANE('',#1224);
#1030=PLANE('',#1225);
#1031=PLANE('',#1226);
#1032=PLANE('',#1227);
#1033=PLANE('',#1228);
#1034=PLANE('',#1229);
#1035=PLANE('',#1230);
#1036=PLANE('',#1231);
#1037=ADVANCED_FACE('',(#163),#1008,.F.);
#1038=ADVANCED_FACE('',(#164,#101),#1009,.F.);
#1039=ADVANCED_FACE('',(#165),#1010,.F.);
#1040=ADVANCED_FACE('',(#166),#22,.F.);
#1041=ADVANCED_FACE('',(#167),#23,.T.);
#1042=ADVANCED_FACE('',(#168),#1011,.T.);
#1043=ADVANCED_FACE('',(#169,#102),#1012,.T.);
#1044=ADVANCED_FACE('',(#170),#14,.T.);
#1045=ADVANCED_FACE('',(#171),#24,.F.);
#1046=ADVANCED_FACE('',(#172),#15,.T.);
#1047=ADVANCED_FACE('',(#173),#25,.T.);
#1048=ADVANCED_FACE('',(#174),#26,.F.);
#1049=ADVANCED_FACE('',(#175),#1013,.T.);
#1050=ADVANCED_FACE('',(#176),#27,.T.);
#1051=ADVANCED_FACE('',(#177),#28,.T.);
#1052=ADVANCED_FACE('',(#178),#1014,.T.);
#1053=ADVANCED_FACE('',(#179),#1015,.T.);
#1054=ADVANCED_FACE('',(#180),#16,.T.);
#1055=ADVANCED_FACE('',(#181),#29,.T.);
#1056=ADVANCED_FACE('',(#182),#17,.T.);
#1057=ADVANCED_FACE('',(#183),#30,.T.);
#1058=ADVANCED_FACE('',(#184),#18,.T.);
#1059=ADVANCED_FACE('',(#185),#31,.T.);
#1060=ADVANCED_FACE('',(#186),#32,.F.);
#1061=ADVANCED_FACE('',(#187),#1016,.T.);
#1062=ADVANCED_FACE('',(#188),#33,.T.);
#1063=ADVANCED_FACE('',(#189),#1017,.T.);
#1064=ADVANCED_FACE('',(#190),#34,.T.);
#1065=ADVANCED_FACE('',(#191),#35,.T.);
#1066=ADVANCED_FACE('',(#192),#19,.T.);
#1067=ADVANCED_FACE('',(#193),#36,.T.);
#1068=ADVANCED_FACE('',(#194),#20,.T.);
#1069=ADVANCED_FACE('',(#195),#37,.T.);
#1070=ADVANCED_FACE('',(#196),#21,.T.);
#1071=ADVANCED_FACE('',(#197),#38,.F.);
#1072=ADVANCED_FACE('',(#198),#1018,.T.);
#1073=ADVANCED_FACE('',(#199,#103,#104,#105,#106),#1019,.T.);
#1074=ADVANCED_FACE('',(#200,#107),#1020,.T.);
#1075=ADVANCED_FACE('',(#201),#1021,.T.);
#1076=ADVANCED_FACE('',(#202),#1022,.T.);
#1077=ADVANCED_FACE('',(#203),#1023,.T.);
#1078=ADVANCED_FACE('',(#204),#1024,.T.);
#1079=ADVANCED_FACE('',(#205),#1025,.T.);
#1080=ADVANCED_FACE('',(#206),#1026,.T.);
#1081=ADVANCED_FACE('',(#207),#39,.F.);
#1082=ADVANCED_FACE('',(#208),#40,.F.);
#1083=ADVANCED_FACE('',(#209),#41,.F.);
#1084=ADVANCED_FACE('',(#210),#42,.F.);
#1085=ADVANCED_FACE('',(#211),#43,.F.);
#1086=ADVANCED_FACE('',(#212),#1027,.T.);
#1087=ADVANCED_FACE('',(#213),#1028,.F.);
#1088=ADVANCED_FACE('',(#214),#1029,.F.);
#1089=ADVANCED_FACE('',(#215),#1030,.F.);
#1090=ADVANCED_FACE('',(#216),#1031,.F.);
#1091=ADVANCED_FACE('',(#217,#108),#1032,.F.);
#1092=ADVANCED_FACE('',(#218),#1033,.T.);
#1093=ADVANCED_FACE('',(#219),#1034,.T.);
#1094=ADVANCED_FACE('',(#220),#1035,.T.);
#1095=ADVANCED_FACE('',(#221),#1036,.T.);
#1096=CLOSED_SHELL('',(#1037,#1038,#1039,#1040,#1041,#1042,#1043,#1044,
#1045,#1046,#1047,#1048,#1049,#1050,#1051,#1052,#1053,#1054,#1055,#1056,
#1057,#1058,#1059,#1060,#1061,#1062,#1063,#1064,#1065,#1066,#1067,#1068,
#1069,#1070,#1071,#1072,#1073,#1074,#1075,#1076,#1077,#1078,#1079,#1080,
#1081,#1082,#1083,#1084,#1085,#1086,#1087,#1088,#1089,#1090,#1091,#1092,
#1093,#1094,#1095));
#1097=DERIVED_UNIT_ELEMENT(#1100,1.);
#1098=DERIVED_UNIT_ELEMENT(#1937,-3.);
#1099=DIMENSIONAL_EXPONENTS(0.,1.,0.,0.,0.,0.,0.);
#1100=(
CONVERSION_BASED_UNIT('gram',#1102)
MASS_UNIT()
NAMED_UNIT(#1099)
);
#1101=(
MASS_UNIT()
NAMED_UNIT(*)
SI_UNIT(.KILO.,.GRAM.)
);
#1102=MASS_MEASURE_WITH_UNIT(MASS_MEASURE(0.001),#1101);
#1103=DERIVED_UNIT((#1097,#1098));
#1104=MEASURE_REPRESENTATION_ITEM('density measure',
POSITIVE_RATIO_MEASURE(1.),#1103);
#1105=PROPERTY_DEFINITION_REPRESENTATION(#1110,#1107);
#1106=PROPERTY_DEFINITION_REPRESENTATION(#1111,#1108);
#1107=REPRESENTATION('material name',(#1109),#1934);
#1108=REPRESENTATION('density',(#1104),#1934);
#1109=DESCRIPTIVE_REPRESENTATION_ITEM('Generic','Generic');
#1110=PROPERTY_DEFINITION('material property','material name',#1944);
#1111=PROPERTY_DEFINITION('material property','density of part',#1944);
#1112=DATE_TIME_ROLE('creation_date');
#1113=APPLIED_DATE_AND_TIME_ASSIGNMENT(#1114,#1112,(#1944));
#1114=DATE_AND_TIME(#1115,#1116);
#1115=CALENDAR_DATE(2026,29,1);
#1116=LOCAL_TIME(0,0,0.,#1117);
#1117=COORDINATED_UNIVERSAL_TIME_OFFSET(0,0,.BEHIND.);
#1118=AXIS2_PLACEMENT_3D('',#1543,#1232,#1233);
#1119=AXIS2_PLACEMENT_3D('',#1544,#1234,#1235);
#1120=AXIS2_PLACEMENT_3D('',#1575,#1238,#1239);
#1121=AXIS2_PLACEMENT_3D('',#1607,#1245,#1246);
#1122=AXIS2_PLACEMENT_3D('',#1609,#1247,#1248);
#1123=AXIS2_PLACEMENT_3D('',#1611,#1249,#1250);
#1124=AXIS2_PLACEMENT_3D('',#1613,#1252,#1253);
#1125=AXIS2_PLACEMENT_3D('',#1641,#1255,#1256);
#1126=AXIS2_PLACEMENT_3D('',#1645,#1258,#1259);
#1127=AXIS2_PLACEMENT_3D('',#1647,#1261,#1262);
#1128=AXIS2_PLACEMENT_3D('',#1650,#1264,#1265);
#1129=AXIS2_PLACEMENT_3D('',#1651,#1266,#1267);
#1130=AXIS2_PLACEMENT_3D('',#1663,#1274,#1275);
#1131=AXIS2_PLACEMENT_3D('',#1665,#1276,#1277);
#1132=AXIS2_PLACEMENT_3D('',#1669,#1279,#1280);
#1133=AXIS2_PLACEMENT_3D('',#1673,#1282,#1283);
#1134=AXIS2_PLACEMENT_3D('',#1676,#1285,#1286);
#1135=AXIS2_PLACEMENT_3D('',#1685,#1291,#1292);
#1136=AXIS2_PLACEMENT_3D('',#1687,#1293,#1294);
#1137=AXIS2_PLACEMENT_3D('',#1688,#1295,#1296);
#1138=AXIS2_PLACEMENT_3D('',#1689,#1297,#1298);
#1139=AXIS2_PLACEMENT_3D('',#1691,#1299,#1300);
#1140=AXIS2_PLACEMENT_3D('',#1693,#1302,#1303);
#1141=AXIS2_PLACEMENT_3D('',#1695,#1304,#1305);
#1142=AXIS2_PLACEMENT_3D('',#1696,#1306,#1307);
#1143=AXIS2_PLACEMENT_3D('',#1697,#1308,#1309);
#1144=AXIS2_PLACEMENT_3D('',#1699,#1310,#1311);
#1145=AXIS2_PLACEMENT_3D('',#1702,#1313,#1314);
#1146=AXIS2_PLACEMENT_3D('',#1703,#1315,#1316);
#1147=AXIS2_PLACEMENT_3D('',#1705,#1317,#1318);
#1148=AXIS2_PLACEMENT_3D('',#1708,#1320,#1321);
#1149=AXIS2_PLACEMENT_3D('',#1709,#1322,#1323);
#1150=AXIS2_PLACEMENT_3D('',#1716,#1327,#1328);
#1151=AXIS2_PLACEMENT_3D('',#1717,#1329,#1330);
#1152=AXIS2_PLACEMENT_3D('',#1719,#1331,#1332);
#1153=AXIS2_PLACEMENT_3D('',#1721,#1334,#1335);
#1154=AXIS2_PLACEMENT_3D('',#1723,#1336,#1337);
#1155=AXIS2_PLACEMENT_3D('',#1725,#1339,#1340);
#1156=AXIS2_PLACEMENT_3D('',#1729,#1343,#1344);
#1157=AXIS2_PLACEMENT_3D('',#1733,#1347,#1348);
#1158=AXIS2_PLACEMENT_3D('',#1735,#1349,#1350);
#1159=AXIS2_PLACEMENT_3D('',#1737,#1351,#1352);
#1160=AXIS2_PLACEMENT_3D('',#1738,#1353,#1354);
#1161=AXIS2_PLACEMENT_3D('',#1739,#1355,#1356);
#1162=AXIS2_PLACEMENT_3D('',#1741,#1358,#1359);
#1163=AXIS2_PLACEMENT_3D('',#1743,#1360,#1361);
#1164=AXIS2_PLACEMENT_3D('',#1744,#1362,#1363);
#1165=AXIS2_PLACEMENT_3D('',#1745,#1364,#1365);
#1166=AXIS2_PLACEMENT_3D('',#1747,#1366,#1367);
#1167=AXIS2_PLACEMENT_3D('',#1749,#1369,#1370);
#1168=AXIS2_PLACEMENT_3D('',#1751,#1371,#1372);
#1169=AXIS2_PLACEMENT_3D('',#1752,#1373,#1374);
#1170=AXIS2_PLACEMENT_3D('',#1753,#1375,#1376);
#1171=AXIS2_PLACEMENT_3D('',#1755,#1378,#1379);
#1172=AXIS2_PLACEMENT_3D('',#1758,#1381,#1382);
#1173=AXIS2_PLACEMENT_3D('',#1759,#1383,#1384);
#1174=AXIS2_PLACEMENT_3D('',#1763,#1387,#1388);
#1175=AXIS2_PLACEMENT_3D('',#1767,#1391,#1392);
#1176=AXIS2_PLACEMENT_3D('',#1768,#1393,#1394);
#1177=AXIS2_PLACEMENT_3D('',#1771,#1397,#1398);
#1178=AXIS2_PLACEMENT_3D('',#1774,#1400,#1401);
#1179=AXIS2_PLACEMENT_3D('',#1775,#1402,#1403);
#1180=AXIS2_PLACEMENT_3D('',#1791,#1405,#1406);
#1181=AXIS2_PLACEMENT_3D('',#1794,#1409,#1410);
#1182=AXIS2_PLACEMENT_3D('',#1796,#1411,#1412);
#1183=AXIS2_PLACEMENT_3D('',#1797,#1413,#1414);
#1184=AXIS2_PLACEMENT_3D('',#1798,#1415,#1416);
#1185=AXIS2_PLACEMENT_3D('',#1814,#1418,#1419);
#1186=AXIS2_PLACEMENT_3D('',#1816,#1421,#1422);
#1187=AXIS2_PLACEMENT_3D('',#1818,#1423,#1424);
#1188=AXIS2_PLACEMENT_3D('',#1819,#1425,#1426);
#1189=AXIS2_PLACEMENT_3D('',#1820,#1427,#1428);
#1190=AXIS2_PLACEMENT_3D('',#1838,#1430,#1431);
#1191=AXIS2_PLACEMENT_3D('',#1840,#1433,#1434);
#1192=AXIS2_PLACEMENT_3D('',#1841,#1435,#1436);
#1193=AXIS2_PLACEMENT_3D('',#1842,#1437,#1438);
#1194=AXIS2_PLACEMENT_3D('',#1844,#1439,#1440);
#1195=AXIS2_PLACEMENT_3D('',#1847,#1442,#1443);
#1196=AXIS2_PLACEMENT_3D('',#1848,#1444,#1445);
#1197=AXIS2_PLACEMENT_3D('',#1849,#1446,#1447);
#1198=AXIS2_PLACEMENT_3D('',#1850,#1448,#1449);
#1199=AXIS2_PLACEMENT_3D('',#1851,#1450,#1451);
#1200=AXIS2_PLACEMENT_3D('',#1853,#1452,#1453);
#1201=AXIS2_PLACEMENT_3D('',#1854,#1454,#1455);
#1202=AXIS2_PLACEMENT_3D('',#1856,#1456,#1457);
#1203=AXIS2_PLACEMENT_3D('',#1858,#1458,#1459);
#1204=AXIS2_PLACEMENT_3D('',#1860,#1460,#1461);
#1205=AXIS2_PLACEMENT_3D('',#1862,#1463,#1464);
#1206=AXIS2_PLACEMENT_3D('',#1872,#1470,#1471);
#1207=AXIS2_PLACEMENT_3D('',#1874,#1472,#1473);
#1208=AXIS2_PLACEMENT_3D('',#1875,#1474,#1475);
#1209=AXIS2_PLACEMENT_3D('',#1877,#1476,#1477);
#1210=AXIS2_PLACEMENT_3D('',#1878,#1478,#1479);
#1211=AXIS2_PLACEMENT_3D('',#1880,#1480,#1481);
#1212=AXIS2_PLACEMENT_3D('',#1881,#1482,#1483);
#1213=AXIS2_PLACEMENT_3D('',#1883,#1484,#1485);
#1214=AXIS2_PLACEMENT_3D('',#1884,#1486,#1487);
#1215=AXIS2_PLACEMENT_3D('',#1886,#1488,#1489);
#1216=AXIS2_PLACEMENT_3D('',#1887,#1490,#1491);
#1217=AXIS2_PLACEMENT_3D('',#1888,#1492,#1493);
#1218=AXIS2_PLACEMENT_3D('',#1890,#1495,#1496);
#1219=AXIS2_PLACEMENT_3D('',#1892,#1498,#1499);
#1220=AXIS2_PLACEMENT_3D('',#1894,#1501,#1502);
#1221=AXIS2_PLACEMENT_3D('',#1896,#1504,#1505);
#1222=AXIS2_PLACEMENT_3D('',#1898,#1507,#1508);
#1223=AXIS2_PLACEMENT_3D('',#1899,#1509,#1510);
#1224=AXIS2_PLACEMENT_3D('',#1905,#1514,#1515);
#1225=AXIS2_PLACEMENT_3D('',#1909,#1518,#1519);
#1226=AXIS2_PLACEMENT_3D('',#1913,#1522,#1523);
#1227=AXIS2_PLACEMENT_3D('',#1915,#1525,#1526);
#1228=AXIS2_PLACEMENT_3D('',#1924,#1531,#1532);
#1229=AXIS2_PLACEMENT_3D('',#1927,#1535,#1536);
#1230=AXIS2_PLACEMENT_3D('',#1929,#1538,#1539);
#1231=AXIS2_PLACEMENT_3D('',#1931,#1541,#1542);
#1232=DIRECTION('axis',(0.,0.,1.));
#1233=DIRECTION('refdir',(1.,0.,0.));
#1234=DIRECTION('center_axis',(-1.,0.,-5.24359497740227E-16));
#1235=DIRECTION('ref_axis',(5.24359497740227E-16,0.,-1.));
#1236=DIRECTION('',(0.,-1.,0.));
#1237=DIRECTION('',(0.,1.,0.));
#1238=DIRECTION('center_axis',(1.31581988103722E-16,0.,1.));
#1239=DIRECTION('ref_axis',(-1.,0.,1.31581988103722E-16));
#1240=DIRECTION('',(0.,-1.,0.));
#1241=DIRECTION('',(-1.,0.,1.31581988103722E-16));
#1242=DIRECTION('',(1.,0.,-1.31581988103722E-16));
#1243=DIRECTION('',(-1.,0.,1.31581988103722E-16));
#1244=DIRECTION('',(0.,-1.,0.));
#1245=DIRECTION('center_axis',(1.31581988103722E-16,0.,1.));
#1246=DIRECTION('ref_axis',(-0.887545609611207,-0.460719861586053,0.));
#1247=DIRECTION('center_axis',(-1.31581988103722E-16,0.,-1.));
#1248=DIRECTION('ref_axis',(0.999704606752742,-0.0243043049138448,0.));
#1249=DIRECTION('center_axis',(1.31581988103722E-16,0.,1.));
#1250=DIRECTION('ref_axis',(0.887545609611209,-0.460719861586048,0.));
#1251=DIRECTION('',(0.,1.,0.));
#1252=DIRECTION('center_axis',(1.,0.,0.));
#1253=DIRECTION('ref_axis',(0.,0.,1.));
#1254=DIRECTION('',(0.,-1.,0.));
#1255=DIRECTION('center_axis',(0.,0.,-1.));
#1256=DIRECTION('ref_axis',(0.999704606752742,-0.0243043049138448,0.));
#1257=DIRECTION('',(0.,0.,-1.));
#1258=DIRECTION('center_axis',(0.,0.,-1.));
#1259=DIRECTION('ref_axis',(0.999704606752742,-0.0243043049138448,0.));
#1260=DIRECTION('',(0.,0.,1.));
#1261=DIRECTION('center_axis',(0.,0.,1.));
#1262=DIRECTION('ref_axis',(-0.887545609611207,-0.460719861586053,0.));
#1263=DIRECTION('',(4.80740671595892E-16,0.,1.));
#1264=DIRECTION('center_axis',(0.,0.,-1.));
#1265=DIRECTION('ref_axis',(-0.887545609611207,-0.460719861586053,0.));
#1266=DIRECTION('center_axis',(-1.,0.,4.80740671595892E-16));
#1267=DIRECTION('ref_axis',(4.80740671595892E-16,0.,1.));
#1268=DIRECTION('',(-4.80740671595892E-16,0.,-1.));
#1269=DIRECTION('',(0.,1.,0.));
#1270=DIRECTION('',(4.80740671595892E-16,0.,1.));
#1271=DIRECTION('',(0.,1.,0.));
#1272=DIRECTION('',(0.,0.,1.));
#1273=DIRECTION('',(0.,1.,0.));
#1274=DIRECTION('center_axis',(0.,-1.,0.));
#1275=DIRECTION('ref_axis',(0.,0.,-1.));
#1276=DIRECTION('center_axis',(0.,-1.,0.));
#1277=DIRECTION('ref_axis',(-0.866025403784438,0.,-0.5));
#1278=DIRECTION('',(-1.53134210293125E-16,0.,-1.));
#1279=DIRECTION('center_axis',(0.,1.,0.));
#1280=DIRECTION('ref_axis',(0.707106781186547,0.,0.707106781186548));
#1281=DIRECTION('',(1.,0.,0.));
#1282=DIRECTION('center_axis',(0.,1.,0.));
#1283=DIRECTION('ref_axis',(-0.707106781186547,0.,0.707106781186548));
#1284=DIRECTION('',(-1.53134210293125E-16,0.,1.));
#1285=DIRECTION('center_axis',(0.,-1.,0.));
#1286=DIRECTION('ref_axis',(0.866025403784439,0.,-0.5));
#1287=DIRECTION('',(-2.72929826887018E-14,0.,1.));
#1288=DIRECTION('',(1.,0.,0.));
#1289=DIRECTION('',(7.40148683083438E-16,0.,-1.));
#1290=DIRECTION('',(-1.,0.,0.));
#1291=DIRECTION('center_axis',(0.,-1.,0.));
#1292=DIRECTION('ref_axis',(0.,0.,-1.));
#1293=DIRECTION('center_axis',(0.,1.,0.));
#1294=DIRECTION('ref_axis',(-0.866025403784438,0.,-0.5));
#1295=DIRECTION('center_axis',(0.,0.,1.));
#1296=DIRECTION('ref_axis',(0.,-1.,0.));
#1297=DIRECTION('center_axis',(0.,1.,0.));
#1298=DIRECTION('ref_axis',(-0.866025403784438,0.,-0.500000000000001));
#1299=DIRECTION('center_axis',(0.,-1.,0.));
#1300=DIRECTION('ref_axis',(-0.866025403784438,0.,-0.5));
#1301=DIRECTION('',(0.,-1.,0.));
#1302=DIRECTION('center_axis',(0.,1.,0.));
#1303=DIRECTION('ref_axis',(0.,0.,1.));
#1304=DIRECTION('center_axis',(0.,1.,0.));
#1305=DIRECTION('ref_axis',(-0.866025403784438,0.,-0.5));
#1306=DIRECTION('center_axis',(0.,0.,-1.));
#1307=DIRECTION('ref_axis',(0.,1.,0.));
#1308=DIRECTION('center_axis',(0.,0.,1.));
#1309=DIRECTION('ref_axis',(-0.887545609611207,-0.460719861586052,0.));
#1310=DIRECTION('center_axis',(0.,0.,-1.));
#1311=DIRECTION('ref_axis',(-0.887545609611207,-0.460719861586052,0.));
#1312=DIRECTION('',(0.,0.,-1.));
#1313=DIRECTION('center_axis',(0.,0.,1.));
#1314=DIRECTION('ref_axis',(-0.887545609611207,-0.460719861586052,0.));
#1315=DIRECTION('center_axis',(0.,0.,-1.));
#1316=DIRECTION('ref_axis',(0.999704606752742,-0.0243043049138448,0.));
#1317=DIRECTION('center_axis',(0.,0.,-1.));
#1318=DIRECTION('ref_axis',(0.999704606752742,-0.0243043049138448,0.));
#1319=DIRECTION('',(0.,0.,1.));
#1320=DIRECTION('center_axis',(0.,0.,1.));
#1321=DIRECTION('ref_axis',(0.999704606752742,-0.0243043049138448,0.));
#1322=DIRECTION('center_axis',(0.,0.,1.));
#1323=DIRECTION('ref_axis',(-1.,0.,0.));
#1324=DIRECTION('',(0.,-1.,0.));
#1325=DIRECTION('',(1.,0.,0.));
#1326=DIRECTION('',(0.,1.,0.));
#1327=DIRECTION('center_axis',(0.,0.,-1.));
#1328=DIRECTION('ref_axis',(0.887545609611209,-0.460719861586048,0.));
#1329=DIRECTION('center_axis',(0.,0.,-1.));
#1330=DIRECTION('ref_axis',(0.887545609611209,-0.460719861586048,0.));
#1331=DIRECTION('center_axis',(0.,0.,1.));
#1332=DIRECTION('ref_axis',(0.887545609611209,-0.460719861586048,0.));
#1333=DIRECTION('',(-5.55111512312575E-16,0.,-1.));
#1334=DIRECTION('center_axis',(0.,0.,-1.));
#1335=DIRECTION('ref_axis',(0.887545609611209,-0.460719861586048,0.));
#1336=DIRECTION('center_axis',(0.,0.,-1.));
#1337=DIRECTION('ref_axis',(0.887545609611209,-0.460719861586048,0.));
#1338=DIRECTION('',(-5.55111512312575E-16,0.,-1.));
#1339=DIRECTION('center_axis',(0.,0.,1.));
#1340=DIRECTION('ref_axis',(1.,0.,0.));
#1341=DIRECTION('',(1.,0.,0.));
#1342=DIRECTION('',(0.,1.,0.));
#1343=DIRECTION('center_axis',(0.,0.,-1.));
#1344=DIRECTION('ref_axis',(-1.,0.,0.));
#1345=DIRECTION('',(0.,1.,0.));
#1346=DIRECTION('',(-1.,0.,0.));
#1347=DIRECTION('center_axis',(0.,1.,0.));
#1348=DIRECTION('ref_axis',(0.,0.,1.));
#1349=DIRECTION('center_axis',(1.,0.,0.));
#1350=DIRECTION('ref_axis',(0.,0.,1.));
#1351=DIRECTION('center_axis',(0.,0.,1.));
#1352=DIRECTION('ref_axis',(0.,-1.,0.));
#1353=DIRECTION('center_axis',(0.,-1.,0.));
#1354=DIRECTION('ref_axis',(0.707106781186547,0.,0.707106781186548));
#1355=DIRECTION('center_axis',(1.53134210293125E-16,0.,1.));
#1356=DIRECTION('ref_axis',(0.707106781186548,-0.707106781186547,0.));
#1357=DIRECTION('',(1.53134210293125E-16,0.,1.));
#1358=DIRECTION('center_axis',(0.,-1.,0.));
#1359=DIRECTION('ref_axis',(0.,0.,-1.));
#1360=DIRECTION('center_axis',(0.,0.,-1.));
#1361=DIRECTION('ref_axis',(0.,-1.,0.));
#1362=DIRECTION('center_axis',(0.,1.,0.));
#1363=DIRECTION('ref_axis',(0.866025403784439,0.,-0.5));
#1364=DIRECTION('center_axis',(1.53134210293125E-16,0.,-1.));
#1365=DIRECTION('ref_axis',(-0.707106781186548,-0.707106781186547,0.));
#1366=DIRECTION('center_axis',(0.,0.,-1.));
#1367=DIRECTION('ref_axis',(0.,-1.,0.));
#1368=DIRECTION('',(1.53134210293125E-16,0.,-1.));
#1369=DIRECTION('center_axis',(0.,1.,0.));
#1370=DIRECTION('ref_axis',(0.,0.,1.));
#1371=DIRECTION('center_axis',(-1.,0.,0.));
#1372=DIRECTION('ref_axis',(0.,-1.,0.));
#1373=DIRECTION('center_axis',(0.,-1.,0.));
#1374=DIRECTION('ref_axis',(-0.707106781186547,0.,0.707106781186548));
#1375=DIRECTION('center_axis',(-1.,0.,0.));
#1376=DIRECTION('ref_axis',(0.,-0.707106781186549,0.707106781186546));
#1377=DIRECTION('',(-1.,0.,0.));
#1378=DIRECTION('center_axis',(0.,1.,0.));
#1379=DIRECTION('ref_axis',(0.866025403784439,0.,-0.5));
#1380=DIRECTION('',(0.,1.,0.));
#1381=DIRECTION('center_axis',(0.,-1.,0.));
#1382=DIRECTION('ref_axis',(0.866025403784439,0.,-0.5));
#1383=DIRECTION('center_axis',(-1.,0.,-1.53134210293125E-16));
#1384=DIRECTION('ref_axis',(1.53134210293125E-16,0.,-1.));
#1385=DIRECTION('',(0.,-1.,0.));
#1386=DIRECTION('',(-1.53134210293125E-16,0.,1.));
#1387=DIRECTION('center_axis',(0.,-1.,0.));
#1388=DIRECTION('ref_axis',(-0.707106781186547,0.,0.707106781186548));
#1389=DIRECTION('',(0.,1.,0.));
#1390=DIRECTION('',(0.,1.,0.));
#1391=DIRECTION('center_axis',(0.,1.,0.));
#1392=DIRECTION('ref_axis',(-0.707106781186547,0.,0.707106781186548));
#1393=DIRECTION('center_axis',(0.,0.,1.));
#1394=DIRECTION('ref_axis',(-1.,0.,0.));
#1395=DIRECTION('',(0.,-1.,0.));
#1396=DIRECTION('',(1.,0.,0.));
#1397=DIRECTION('center_axis',(0.,1.,0.));
#1398=DIRECTION('ref_axis',(0.707106781186547,0.,0.707106781186548));
#1399=DIRECTION('',(0.,1.,0.));
#1400=DIRECTION('center_axis',(0.,1.,0.));
#1401=DIRECTION('ref_axis',(0.707106781186547,0.,0.707106781186548));
#1402=DIRECTION('center_axis',(-1.53134210293125E-16,0.,-1.));
#1403=DIRECTION('ref_axis',(0.707106781186548,0.707106781186548,0.));
#1404=DIRECTION('',(1.53134210293125E-16,0.,1.));
#1405=DIRECTION('center_axis',(0.,0.,-1.));
#1406=DIRECTION('ref_axis',(0.,1.,0.));
#1407=DIRECTION('',(-1.53134210293125E-16,0.,-1.));
#1408=DIRECTION('',(1.53134210293125E-16,0.,1.));
#1409=DIRECTION('center_axis',(0.,-1.,0.));
#1410=DIRECTION('ref_axis',(0.,0.,-1.));
#1411=DIRECTION('center_axis',(1.,0.,0.));
#1412=DIRECTION('ref_axis',(0.,1.,0.));
#1413=DIRECTION('center_axis',(0.,-1.,0.));
#1414=DIRECTION('ref_axis',(0.707106781186547,0.,0.707106781186548));
#1415=DIRECTION('center_axis',(1.,0.,0.));
#1416=DIRECTION('ref_axis',(0.,0.707106781186549,0.707106781186546));
#1417=DIRECTION('',(-1.,0.,0.));
#1418=DIRECTION('center_axis',(1.,0.,1.11022302462516E-15));
#1419=DIRECTION('ref_axis',(0.,1.,0.));
#1420=DIRECTION('',(-1.,0.,0.));
#1421=DIRECTION('center_axis',(0.,-1.,0.));
#1422=DIRECTION('ref_axis',(0.,0.,-1.));
#1423=DIRECTION('center_axis',(0.,0.,1.));
#1424=DIRECTION('ref_axis',(0.,1.,0.));
#1425=DIRECTION('center_axis',(0.,-1.,0.));
#1426=DIRECTION('ref_axis',(-0.707106781186547,0.,0.707106781186548));
#1427=DIRECTION('center_axis',(-1.53134210293125E-16,0.,1.));
#1428=DIRECTION('ref_axis',(-0.707106781186548,0.707106781186548,0.));
#1429=DIRECTION('',(1.53134210293125E-16,0.,-1.));
#1430=DIRECTION('center_axis',(0.,0.,1.));
#1431=DIRECTION('ref_axis',(0.,1.,0.));
#1432=DIRECTION('',(1.53134210293125E-16,0.,-1.));
#1433=DIRECTION('center_axis',(0.,1.,0.));
#1434=DIRECTION('ref_axis',(0.,0.,1.));
#1435=DIRECTION('center_axis',(0.,1.,0.));
#1436=DIRECTION('ref_axis',(0.866025403784439,0.,-0.5));
#1437=DIRECTION('center_axis',(0.,1.,0.));
#1438=DIRECTION('ref_axis',(1.,0.,0.));
#1439=DIRECTION('center_axis',(0.,-1.,0.));
#1440=DIRECTION('ref_axis',(1.,0.,0.));
#1441=DIRECTION('',(0.,-1.,0.));
#1442=DIRECTION('center_axis',(0.,-1.,0.));
#1443=DIRECTION('ref_axis',(1.,0.,0.));
#1444=DIRECTION('center_axis',(0.,-1.,0.));
#1445=DIRECTION('ref_axis',(1.,0.,0.));
#1446=DIRECTION('center_axis',(1.,0.,-1.53134210293125E-16));
#1447=DIRECTION('ref_axis',(1.53134210293125E-16,0.,1.));
#1448=DIRECTION('center_axis',(0.,1.,0.));
#1449=DIRECTION('ref_axis',(0.,0.,1.));
#1450=DIRECTION('center_axis',(0.,-1.,0.));
#1451=DIRECTION('ref_axis',(1.,0.,0.));
#1452=DIRECTION('center_axis',(0.,-1.,0.));
#1453=DIRECTION('ref_axis',(1.,0.,0.));
#1454=DIRECTION('center_axis',(0.,-1.,0.));
#1455=DIRECTION('ref_axis',(1.,0.,0.));
#1456=DIRECTION('center_axis',(0.,-1.,0.));
#1457=DIRECTION('ref_axis',(1.,0.,0.));
#1458=DIRECTION('center_axis',(0.,-1.,0.));
#1459=DIRECTION('ref_axis',(1.,0.,0.));
#1460=DIRECTION('center_axis',(0.,-1.,0.));
#1461=DIRECTION('ref_axis',(1.,0.,0.));
#1462=DIRECTION('',(0.,0.,-1.));
#1463=DIRECTION('center_axis',(0.,1.,0.));
#1464=DIRECTION('ref_axis',(0.,0.,1.));
#1465=DIRECTION('',(5.55111512312575E-16,0.,1.));
#1466=DIRECTION('',(1.,0.,-6.90805437544542E-15));
#1467=DIRECTION('',(6.16790569236212E-17,0.,1.));
#1468=DIRECTION('',(-1.,0.,0.));
#1469=DIRECTION('',(4.07081775695903E-15,0.,-1.));
#1470=DIRECTION('center_axis',(0.,1.,0.));
#1471=DIRECTION('ref_axis',(0.,0.,1.));
#1472=DIRECTION('center_axis',(0.,-1.,0.));
#1473=DIRECTION('ref_axis',(1.,0.,0.));
#1474=DIRECTION('center_axis',(0.,1.,0.));
#1475=DIRECTION('ref_axis',(0.,0.,1.));
#1476=DIRECTION('center_axis',(0.,-1.,0.));
#1477=DIRECTION('ref_axis',(1.,0.,0.));
#1478=DIRECTION('center_axis',(0.,1.,0.));
#1479=DIRECTION('ref_axis',(0.,0.,1.));
#1480=DIRECTION('center_axis',(0.,-1.,0.));
#1481=DIRECTION('ref_axis',(1.,0.,0.));
#1482=DIRECTION('center_axis',(0.,1.,0.));
#1483=DIRECTION('ref_axis',(0.,0.,1.));
#1484=DIRECTION('center_axis',(0.,-1.,0.));
#1485=DIRECTION('ref_axis',(1.,0.,0.));
#1486=DIRECTION('center_axis',(0.,1.,0.));
#1487=DIRECTION('ref_axis',(0.,0.,1.));
#1488=DIRECTION('center_axis',(0.,-1.,0.));
#1489=DIRECTION('ref_axis',(1.,0.,0.));
#1490=DIRECTION('center_axis',(0.,1.,0.));
#1491=DIRECTION('ref_axis',(0.,0.,1.));
#1492=DIRECTION('center_axis',(0.,1.,0.));
#1493=DIRECTION('ref_axis',(1.,0.,0.));
#1494=DIRECTION('',(0.,-1.,0.));
#1495=DIRECTION('center_axis',(0.,1.,0.));
#1496=DIRECTION('ref_axis',(1.,0.,0.));
#1497=DIRECTION('',(0.,-1.,0.));
#1498=DIRECTION('center_axis',(0.,1.,0.));
#1499=DIRECTION('ref_axis',(1.,0.,0.));
#1500=DIRECTION('',(0.,-1.,0.));
#1501=DIRECTION('center_axis',(0.,1.,0.));
#1502=DIRECTION('ref_axis',(1.,0.,0.));
#1503=DIRECTION('',(0.,-1.,0.));
#1504=DIRECTION('center_axis',(0.,1.,0.));
#1505=DIRECTION('ref_axis',(1.,0.,0.));
#1506=DIRECTION('',(0.,-1.,0.));
#1507=DIRECTION('center_axis',(1.,0.,-5.55111512312575E-16));
#1508=DIRECTION('ref_axis',(-5.55111512312575E-16,0.,-1.));
#1509=DIRECTION('center_axis',(-6.90805437544542E-15,0.,-1.));
#1510=DIRECTION('ref_axis',(1.,0.,-6.90805437544542E-15));
#1511=DIRECTION('',(0.,-1.,0.));
#1512=DIRECTION('',(1.,0.,-6.90805437544542E-15));
#1513=DIRECTION('',(0.,-1.,0.));
#1514=DIRECTION('center_axis',(-1.,0.,-4.07081775695903E-15));
#1515=DIRECTION('ref_axis',(4.07081775695903E-15,0.,-1.));
#1516=DIRECTION('',(0.,-1.,0.));
#1517=DIRECTION('',(4.07081775695903E-15,0.,-1.));
#1518=DIRECTION('center_axis',(0.,0.,1.));
#1519=DIRECTION('ref_axis',(-1.,0.,0.));
#1520=DIRECTION('',(0.,-1.,0.));
#1521=DIRECTION('',(-1.,0.,0.));
#1522=DIRECTION('center_axis',(1.,0.,-6.16790569236212E-17));
#1523=DIRECTION('ref_axis',(6.16790569236212E-17,0.,1.));
#1524=DIRECTION('',(6.16790569236212E-17,0.,1.));
#1525=DIRECTION('center_axis',(0.,-1.,0.));
#1526=DIRECTION('ref_axis',(0.,0.,-1.));
#1527=DIRECTION('',(-2.72929826887018E-14,0.,1.));
#1528=DIRECTION('',(-1.,0.,0.));
#1529=DIRECTION('',(7.40148683083438E-16,0.,-1.));
#1530=DIRECTION('',(1.,0.,0.));
#1531=DIRECTION('center_axis',(0.,0.,1.));
#1532=DIRECTION('ref_axis',(-1.,0.,0.));
#1533=DIRECTION('',(0.,-1.,0.));
#1534=DIRECTION('',(0.,-1.,0.));
#1535=DIRECTION('center_axis',(1.,0.,2.72929826887018E-14));
#1536=DIRECTION('ref_axis',(-2.72929826887018E-14,0.,1.));
#1537=DIRECTION('',(0.,-1.,0.));
#1538=DIRECTION('center_axis',(-1.,0.,-7.40148683083438E-16));
#1539=DIRECTION('ref_axis',(7.40148683083438E-16,0.,-1.));
#1540=DIRECTION('',(0.,-1.,0.));
#1541=DIRECTION('center_axis',(0.,0.,-1.));
#1542=DIRECTION('ref_axis',(1.,0.,0.));
#1543=CARTESIAN_POINT('',(0.,0.,0.));
#1544=CARTESIAN_POINT('Origin',(21.5769158228202,28.,127.037617826292));
#1545=CARTESIAN_POINT('',(21.5769158228203,-3.98839708008397,67.5));
#1546=CARTESIAN_POINT('',(21.5769158228203,-2.,70.7571599576473));
#1547=CARTESIAN_POINT('Ctrl Pts',(21.5769158228203,-3.98839708008397,67.5));
#1548=CARTESIAN_POINT('Ctrl Pts',(21.5769158228203,-3.96267822775916,67.8960110048626));
#1549=CARTESIAN_POINT('Ctrl Pts',(21.5769158228203,-3.887845826956,68.3174333819353));
#1550=CARTESIAN_POINT('Ctrl Pts',(21.5769158228203,-3.6713421622043,69.0797447529264));
#1551=CARTESIAN_POINT('Ctrl Pts',(21.5769158228203,-3.47695449022919,69.5460301433737));
#1552=CARTESIAN_POINT('Ctrl Pts',(21.5769158228203,-3.08274016962045,70.1468383180002));
#1553=CARTESIAN_POINT('Ctrl Pts',(21.5769158228203,-2.84770844933452,70.4157276925135));
#1554=CARTESIAN_POINT('Ctrl Pts',(21.5769158228203,-2.50628780160372,70.6295896113945));
#1555=CARTESIAN_POINT('Ctrl Pts',(21.5769158228203,-2.392132962672,70.6836666974721));
#1556=CARTESIAN_POINT('Ctrl Pts',(21.5769158228203,-2.20251759187268,70.7403249880211));
#1557=CARTESIAN_POINT('Ctrl Pts',(21.5769158228203,-2.09263625362098,70.7571599576473));
#1558=CARTESIAN_POINT('Ctrl Pts',(21.5769158228203,-2.,70.7571599576473));
#1559=CARTESIAN_POINT('',(21.5769158228203,27.988397080084,67.5));
#1560=CARTESIAN_POINT('',(21.5769158228203,28.,67.5));
#1561=CARTESIAN_POINT('',(21.5769158228203,26.,70.7571599576473));
#1562=CARTESIAN_POINT('Ctrl Pts',(21.5769158228203,26.,70.7571599576473));
#1563=CARTESIAN_POINT('Ctrl Pts',(21.5769158228203,26.092636253621,70.7571599576473));
#1564=CARTESIAN_POINT('Ctrl Pts',(21.5769158228203,26.2025175918727,70.7403249880211));
#1565=CARTESIAN_POINT('Ctrl Pts',(21.5769158228203,26.392132962672,70.6836666974721));
#1566=CARTESIAN_POINT('Ctrl Pts',(21.5769158228203,26.5062878016037,70.6295896113945));
#1567=CARTESIAN_POINT('Ctrl Pts',(21.5769158228203,26.8477084493345,70.4157276925135));
#1568=CARTESIAN_POINT('Ctrl Pts',(21.5769158228203,27.0827401696205,70.1468383180002));
#1569=CARTESIAN_POINT('Ctrl Pts',(21.5769158228203,27.4769544902292,69.5460301433737));
#1570=CARTESIAN_POINT('Ctrl Pts',(21.5769158228203,27.6713421622043,69.0797447529264));
#1571=CARTESIAN_POINT('Ctrl Pts',(21.5769158228203,27.887845826956,68.3174333819353));
#1572=CARTESIAN_POINT('Ctrl Pts',(21.5769158228203,27.9626782277592,67.8960110048626));
#1573=CARTESIAN_POINT('Ctrl Pts',(21.5769158228203,27.988397080084,67.5));
#1574=CARTESIAN_POINT('',(21.5769158228203,0.,70.7571599576473));
#1575=CARTESIAN_POINT('Origin',(21.5769158228203,28.,67.5));
#1576=CARTESIAN_POINT('',(-21.5769158228203,-3.98839708008397,67.5));
#1577=CARTESIAN_POINT('',(-21.3086769873781,-4.,67.5));
#1578=CARTESIAN_POINT('Ctrl Pts',(-21.5769158228203,-3.98839708008397,67.5));
#1579=CARTESIAN_POINT('Ctrl Pts',(-21.485043695959,-3.9963464623038,67.5));
#1580=CARTESIAN_POINT('Ctrl Pts',(-21.3947799375613,-4.,67.5));
#1581=CARTESIAN_POINT('Ctrl Pts',(-21.3086769873781,-4.,67.5));
#1582=CARTESIAN_POINT('',(-21.5769158228203,27.988397080084,67.5));
#1583=CARTESIAN_POINT('',(-21.5769158228203,28.,67.5));
#1584=CARTESIAN_POINT('',(-21.3086769873781,28.,67.5));
#1585=CARTESIAN_POINT('Ctrl Pts',(-21.3086769873781,28.,67.5));
#1586=CARTESIAN_POINT('Ctrl Pts',(-21.3947799375613,28.,67.5));
#1587=CARTESIAN_POINT('Ctrl Pts',(-21.485043695959,27.9963464623038,67.5));
#1588=CARTESIAN_POINT('Ctrl Pts',(-21.5769158228203,27.988397080084,67.5));
#1589=CARTESIAN_POINT('',(21.3086769873781,28.,67.5));
#1590=CARTESIAN_POINT('',(10.7884579114101,28.,67.5));
#1591=CARTESIAN_POINT('Ctrl Pts',(21.5769158228203,27.988397080084,67.5));
#1592=CARTESIAN_POINT('Ctrl Pts',(21.485043695959,27.9963464623038,67.5));
#1593=CARTESIAN_POINT('Ctrl Pts',(21.3947799375613,28.,67.5));
#1594=CARTESIAN_POINT('Ctrl Pts',(21.3086769873781,28.,67.5));
#1595=CARTESIAN_POINT('',(21.3086769873781,-4.,67.5));
#1596=CARTESIAN_POINT('Ctrl Pts',(21.3086769873781,-4.,67.5));
#1597=CARTESIAN_POINT('Ctrl Pts',(21.3947799375613,-4.,67.5));
#1598=CARTESIAN_POINT('Ctrl Pts',(21.485043695959,-3.9963464623038,67.5));
#1599=CARTESIAN_POINT('Ctrl Pts',(21.5769158228203,-3.98839708008397,67.5));
#1600=CARTESIAN_POINT('',(10.7884579114101,-4.,67.5));
#1601=CARTESIAN_POINT('',(11.,0.,67.5));
#1602=CARTESIAN_POINT('',(-11.,0.,67.5));
#1603=CARTESIAN_POINT('',(10.7884579114101,0.,67.5));
#1604=CARTESIAN_POINT('',(11.,12.,67.5));
#1605=CARTESIAN_POINT('',(11.,14.,67.5));
#1606=CARTESIAN_POINT('',(9.76300170572327,14.0679184774466,67.5));
#1607=CARTESIAN_POINT('Origin',(27.5139138979474,23.2823157091676,67.5));
#1608=CARTESIAN_POINT('',(-9.7630017057233,14.0679184774465,67.5));
#1609=CARTESIAN_POINT('Origin',(2.22044604925031E-15,9.,67.5));
#1610=CARTESIAN_POINT('',(-11.,12.,67.5));
#1611=CARTESIAN_POINT('Origin',(-27.5139138979475,23.2823157091675,67.5));
#1612=CARTESIAN_POINT('',(-11.,14.,67.5));
#1613=CARTESIAN_POINT('Origin',(-21.5769158228203,28.,67.5));
#1614=CARTESIAN_POINT('',(-21.5769158228203,-2.,70.7571599576473));
#1615=CARTESIAN_POINT('Ctrl Pts',(-21.5769158228203,-2.,70.7571599576473));
#1616=CARTESIAN_POINT('Ctrl Pts',(-21.5769158228203,-2.09263625362098,70.7571599576473));
#1617=CARTESIAN_POINT('Ctrl Pts',(-21.5769158228203,-2.20251759187268,70.7403249880211));
#1618=CARTESIAN_POINT('Ctrl Pts',(-21.5769158228203,-2.392132962672,70.6836666974721));
#1619=CARTESIAN_POINT('Ctrl Pts',(-21.5769158228203,-2.50628780160372,70.6295896113945));
#1620=CARTESIAN_POINT('Ctrl Pts',(-21.5769158228203,-2.84770844933453,70.4157276925135));
#1621=CARTESIAN_POINT('Ctrl Pts',(-21.5769158228203,-3.08274016962045,70.1468383180002));
#1622=CARTESIAN_POINT('Ctrl Pts',(-21.5769158228203,-3.47695449022918,69.5460301433736));
#1623=CARTESIAN_POINT('Ctrl Pts',(-21.5769158228203,-3.6713421622043,69.0797447529264));
#1624=CARTESIAN_POINT('Ctrl Pts',(-21.5769158228203,-3.887845826956,68.3174333819353));
#1625=CARTESIAN_POINT('Ctrl Pts',(-21.5769158228203,-3.96267822775916,67.8960110048626));
#1626=CARTESIAN_POINT('Ctrl Pts',(-21.5769158228203,-3.98839708008397,67.5));
#1627=CARTESIAN_POINT('',(-21.5769158228203,26.,70.7571599576473));
#1628=CARTESIAN_POINT('',(-21.5769158228203,0.,70.7571599576473));
#1629=CARTESIAN_POINT('Ctrl Pts',(-21.5769158228203,27.988397080084,67.5));
#1630=CARTESIAN_POINT('Ctrl Pts',(-21.5769158228203,27.9626782277592,67.8960110048625));
#1631=CARTESIAN_POINT('Ctrl Pts',(-21.5769158228203,27.887845826956,68.3174333819353));
#1632=CARTESIAN_POINT('Ctrl Pts',(-21.5769158228203,27.6713421622043,69.0797447529264));
#1633=CARTESIAN_POINT('Ctrl Pts',(-21.5769158228203,27.4769544902292,69.5460301433736));
#1634=CARTESIAN_POINT('Ctrl Pts',(-21.5769158228203,27.0827401696205,70.1468383180002));
#1635=CARTESIAN_POINT('Ctrl Pts',(-21.5769158228203,26.8477084493345,70.4157276925135));
#1636=CARTESIAN_POINT('Ctrl Pts',(-21.5769158228203,26.5062878016037,70.6295896113945));
#1637=CARTESIAN_POINT('Ctrl Pts',(-21.5769158228203,26.392132962672,70.6836666974721));
#1638=CARTESIAN_POINT('Ctrl Pts',(-21.5769158228203,26.2025175918727,70.7403249880211));
#1639=CARTESIAN_POINT('Ctrl Pts',(-21.5769158228203,26.092636253621,70.7571599576473));
#1640=CARTESIAN_POINT('Ctrl Pts',(-21.5769158228203,26.,70.7571599576473));
#1641=CARTESIAN_POINT('Origin',(2.22044604925031E-15,9.,125.));
#1642=CARTESIAN_POINT('',(9.76300170572327,14.0679184774466,75.));
#1643=CARTESIAN_POINT('',(9.76300170572327,14.0679184774466,64.4115427318801));
#1644=CARTESIAN_POINT('',(-9.7630017057233,14.0679184774465,75.));
#1645=CARTESIAN_POINT('Origin',(2.22044604925031E-15,9.,75.));
#1646=CARTESIAN_POINT('',(-9.7630017057233,14.0679184774465,125.));
#1647=CARTESIAN_POINT('Origin',(27.5139138979474,23.2823157091676,64.4115427318801));
#1648=CARTESIAN_POINT('',(11.,12.,75.));
#1649=CARTESIAN_POINT('',(11.,12.,64.4115427318801));
#1650=CARTESIAN_POINT('Origin',(27.5139138979474,23.2823157091676,75.));
#1651=CARTESIAN_POINT('Origin',(11.,0.,64.4115427318801));
#1652=CARTESIAN_POINT('',(11.,0.,125.));
#1653=CARTESIAN_POINT('',(11.,0.,32.20577136594));
#1654=CARTESIAN_POINT('',(11.,12.,125.));
#1655=CARTESIAN_POINT('',(11.,0.,125.));
#1656=CARTESIAN_POINT('',(11.,12.,117.));
#1657=CARTESIAN_POINT('',(11.,12.,64.4115427318801));
#1658=CARTESIAN_POINT('',(11.,28.,117.));
#1659=CARTESIAN_POINT('',(11.,12.,117.));
#1660=CARTESIAN_POINT('',(11.,28.,75.));
#1661=CARTESIAN_POINT('',(11.,28.,75.));
#1662=CARTESIAN_POINT('',(11.,12.,75.));
#1663=CARTESIAN_POINT('Origin',(-1.77635683940025E-14,-4.,0.));
#1664=CARTESIAN_POINT('',(17.,-4.,80.5773502691896));
#1665=CARTESIAN_POINT('Origin',(39.,-4.,80.5773502691896));
#1666=CARTESIAN_POINT('',(17.,-4.,117.));
#1667=CARTESIAN_POINT('',(17.,-4.,34.5151724426986));
#1668=CARTESIAN_POINT('',(11.,-4.,123.));
#1669=CARTESIAN_POINT('Origin',(11.,-4.,117.));
#1670=CARTESIAN_POINT('',(-11.,-4.,123.));
#1671=CARTESIAN_POINT('',(9.49999999999999,-4.,123.));
#1672=CARTESIAN_POINT('',(-17.,-4.,117.));
#1673=CARTESIAN_POINT('Origin',(-11.,-4.,117.));
#1674=CARTESIAN_POINT('',(-17.,-4.,80.5773502691896));
#1675=CARTESIAN_POINT('',(-17.,-4.,62.5000000000001));
#1676=CARTESIAN_POINT('Origin',(-39.,-4.,80.5773502691896));
#1677=CARTESIAN_POINT('',(-6.,-4.,100.));
#1678=CARTESIAN_POINT('',(-6.00000000000033,-4.,112.));
#1679=CARTESIAN_POINT('',(-6.00000000000033,-4.,112.));
#1680=CARTESIAN_POINT('',(5.99999999999999,-4.,112.));
#1681=CARTESIAN_POINT('',(5.99999999999999,-4.,112.));
#1682=CARTESIAN_POINT('',(6.,-4.,100.));
#1683=CARTESIAN_POINT('',(6.,-4.,100.));
#1684=CARTESIAN_POINT('',(-6.,-4.,100.));
#1685=CARTESIAN_POINT('Origin',(39.,-2.,80.5773502691896));
#1686=CARTESIAN_POINT('',(19.,-2.,80.5773502691896));
#1687=CARTESIAN_POINT('Origin',(39.,-2.,80.5773502691896));
#1688=CARTESIAN_POINT('Origin',(17.,-2.,80.5773502691896));
#1689=CARTESIAN_POINT('Origin',(39.,0.,80.5773502691896));
#1690=CARTESIAN_POINT('',(19.,26.,80.5773502691896));
#1691=CARTESIAN_POINT('Origin',(39.,26.,80.5773502691896));
#1692=CARTESIAN_POINT('',(19.,0.,80.5773502691896));
#1693=CARTESIAN_POINT('Origin',(39.,26.,80.5773502691896));
#1694=CARTESIAN_POINT('',(17.,28.,80.5773502691896));
#1695=CARTESIAN_POINT('Origin',(39.,28.,80.5773502691896));
#1696=CARTESIAN_POINT('Origin',(17.,26.,80.5773502691896));
#1697=CARTESIAN_POINT('Origin',(27.5139138979474,23.2823157091676,64.4115427318801));
#1698=CARTESIAN_POINT('',(9.76300170572328,14.0679184774466,125.));
#1699=CARTESIAN_POINT('Origin',(27.5139138979474,23.2823157091676,125.));
#1700=CARTESIAN_POINT('',(9.76300170572328,14.0679184774466,117.));
#1701=CARTESIAN_POINT('',(9.76300170572328,14.0679184774466,64.4115427318801));
#1702=CARTESIAN_POINT('Origin',(27.5139138979474,23.2823157091676,117.));
#1703=CARTESIAN_POINT('Origin',(2.22044604925031E-15,9.,125.));
#1704=CARTESIAN_POINT('',(-9.7630017057233,14.0679184774465,125.));
#1705=CARTESIAN_POINT('Origin',(2.22044604925031E-15,9.,125.));
#1706=CARTESIAN_POINT('',(-9.7630017057233,14.0679184774465,117.));
#1707=CARTESIAN_POINT('',(-9.7630017057233,14.0679184774465,125.));
#1708=CARTESIAN_POINT('Origin',(2.22044604925031E-15,9.,117.));
#1709=CARTESIAN_POINT('Origin',(19.,0.,125.));
#1710=CARTESIAN_POINT('',(11.,26.,125.));
#1711=CARTESIAN_POINT('',(11.,0.,125.));
#1712=CARTESIAN_POINT('',(-11.,26.,125.));
#1713=CARTESIAN_POINT('',(9.5,26.,125.));
#1714=CARTESIAN_POINT('',(-11.,12.,125.));
#1715=CARTESIAN_POINT('',(-11.,0.,125.));
#1716=CARTESIAN_POINT('Origin',(-27.5139138979475,23.2823157091675,125.));
#1717=CARTESIAN_POINT('Origin',(-27.5139138979475,23.2823157091675,125.));
#1718=CARTESIAN_POINT('',(-11.,12.,117.));
#1719=CARTESIAN_POINT('Origin',(-27.5139138979475,23.2823157091675,117.));
#1720=CARTESIAN_POINT('',(-11.,12.,125.));
#1721=CARTESIAN_POINT('Origin',(-27.5139138979475,23.2823157091675,125.));
#1722=CARTESIAN_POINT('',(-11.,12.,75.));
#1723=CARTESIAN_POINT('Origin',(-27.5139138979475,23.2823157091675,75.));
#1724=CARTESIAN_POINT('',(-11.,12.,125.));
#1725=CARTESIAN_POINT('Origin',(-11.,12.,75.));
#1726=CARTESIAN_POINT('',(-11.,28.,75.));
#1727=CARTESIAN_POINT('',(-11.,28.,75.));
#1728=CARTESIAN_POINT('',(-11.,12.,75.));
#1729=CARTESIAN_POINT('Origin',(11.,12.,117.));
#1730=CARTESIAN_POINT('',(-11.,28.,117.));
#1731=CARTESIAN_POINT('',(-11.,12.,117.));
#1732=CARTESIAN_POINT('',(11.,28.,117.));
#1733=CARTESIAN_POINT('Origin',(11.,-2.,117.));
#1734=CARTESIAN_POINT('',(11.,-2.,125.));
#1735=CARTESIAN_POINT('Origin',(11.,-2.,123.));
#1736=CARTESIAN_POINT('',(19.,-2.,117.));
#1737=CARTESIAN_POINT('Origin',(17.,-2.,117.));
#1738=CARTESIAN_POINT('Origin',(11.,-2.,117.));
#1739=CARTESIAN_POINT('Origin',(17.,-2.,34.5151724426986));
#1740=CARTESIAN_POINT('',(19.,-2.,34.5151724426986));
#1741=CARTESIAN_POINT('Origin',(-39.,-2.,80.5773502691896));
#1742=CARTESIAN_POINT('',(-19.,-2.,80.5773502691896));
#1743=CARTESIAN_POINT('Origin',(-17.,-2.,80.5773502691896));
#1744=CARTESIAN_POINT('Origin',(-39.,-2.,80.5773502691896));
#1745=CARTESIAN_POINT('Origin',(-17.,-2.,62.5000000000001));
#1746=CARTESIAN_POINT('',(-19.,-2.,117.));
#1747=CARTESIAN_POINT('Origin',(-17.,-2.,117.));
#1748=CARTESIAN_POINT('',(-19.,-2.,62.5000000000001));
#1749=CARTESIAN_POINT('Origin',(-11.,-2.,117.));
#1750=CARTESIAN_POINT('',(-11.,-2.,125.));
#1751=CARTESIAN_POINT('Origin',(-11.,-2.,123.));
#1752=CARTESIAN_POINT('Origin',(-11.,-2.,117.));
#1753=CARTESIAN_POINT('Origin',(9.49999999999999,-2.,123.));
#1754=CARTESIAN_POINT('',(9.49999999999999,-2.,125.));
#1755=CARTESIAN_POINT('Origin',(-39.,0.,80.5773502691896));
#1756=CARTESIAN_POINT('',(-19.,26.,80.5773502691896));
#1757=CARTESIAN_POINT('',(-19.,0.,80.5773502691896));
#1758=CARTESIAN_POINT('Origin',(-39.,26.,80.5773502691896));
#1759=CARTESIAN_POINT('Origin',(-19.,0.,125.));
#1760=CARTESIAN_POINT('',(-19.,26.,117.));
#1761=CARTESIAN_POINT('',(-19.,0.,117.));
#1762=CARTESIAN_POINT('',(-19.,26.,62.5000000000001));
#1763=CARTESIAN_POINT('Origin',(-11.,0.,117.));
#1764=CARTESIAN_POINT('',(-11.,0.,125.));
#1765=CARTESIAN_POINT('',(-11.,0.,125.));
#1766=CARTESIAN_POINT('',(-11.,0.,125.));
#1767=CARTESIAN_POINT('Origin',(-11.,26.,117.));
#1768=CARTESIAN_POINT('Origin',(19.,0.,125.));
#1769=CARTESIAN_POINT('',(11.,0.,125.));
#1770=CARTESIAN_POINT('',(-19.,0.,125.));
#1771=CARTESIAN_POINT('Origin',(11.,0.,117.));
#1772=CARTESIAN_POINT('',(19.,26.,117.));
#1773=CARTESIAN_POINT('',(19.,0.,117.));
#1774=CARTESIAN_POINT('Origin',(11.,26.,117.));
#1775=CARTESIAN_POINT('Origin',(17.,26.,34.5151724426986));
#1776=CARTESIAN_POINT('',(17.,28.,105.5));
#1777=CARTESIAN_POINT('',(17.,28.,108.5));
#1778=CARTESIAN_POINT('Ctrl Pts',(17.,28.,105.5));
#1779=CARTESIAN_POINT('Ctrl Pts',(17.095661123172,28.,105.62754816423));
#1780=CARTESIAN_POINT('Ctrl Pts',(17.1798720625364,27.9931496753496,105.765469330225));
#1781=CARTESIAN_POINT('Ctrl Pts',(17.4154713333255,27.9634639261173,106.251954077703));
#1782=CARTESIAN_POINT('Ctrl Pts',(17.4999999999998,27.9364916731038,106.634600898666));
#1783=CARTESIAN_POINT('Ctrl Pts',(17.4999999999998,27.9364916731038,107.));
#1784=CARTESIAN_POINT('Ctrl Pts',(17.4999999999998,27.9364916731038,107.365399101334));
#1785=CARTESIAN_POINT('Ctrl Pts',(17.4154713333255,27.9634639261173,107.748045922297));
#1786=CARTESIAN_POINT('Ctrl Pts',(17.1798720625364,27.9931496753496,108.234530669775));
#1787=CARTESIAN_POINT('Ctrl Pts',(17.095661123172,28.,108.37245183577));
#1788=CARTESIAN_POINT('Ctrl Pts',(17.,28.,108.5));
#1789=CARTESIAN_POINT('',(17.,28.,117.));
#1790=CARTESIAN_POINT('',(17.,28.,34.5151724426986));
#1791=CARTESIAN_POINT('Origin',(17.,26.,117.));
#1792=CARTESIAN_POINT('',(19.,26.,34.5151724426986));
#1793=CARTESIAN_POINT('',(17.,28.,34.5151724426986));
#1794=CARTESIAN_POINT('Origin',(11.,26.,117.));
#1795=CARTESIAN_POINT('',(11.,28.,123.));
#1796=CARTESIAN_POINT('Origin',(11.,26.,123.));
#1797=CARTESIAN_POINT('Origin',(11.,28.,117.));
#1798=CARTESIAN_POINT('Origin',(9.5,26.,123.));
#1799=CARTESIAN_POINT('',(-3.91027526411526,28.,123.));
#1800=CARTESIAN_POINT('',(-6.0897247358851,28.,123.));
#1801=CARTESIAN_POINT('Ctrl Pts',(-3.91027526411526,28.,123.));
#1802=CARTESIAN_POINT('Ctrl Pts',(-3.92304900427648,28.,123.006186604722));
#1803=CARTESIAN_POINT('Ctrl Pts',(-3.93587918412965,27.9999712983542,123.012266240369));
#1804=CARTESIAN_POINT('Ctrl Pts',(-4.28055208283498,27.9985146170685,123.172008262426));
#1805=CARTESIAN_POINT('Ctrl Pts',(-4.64984846518388,27.9843134832985,123.25));
#1806=CARTESIAN_POINT('Ctrl Pts',(-5.00000000000018,27.9843134832985,123.25));
#1807=CARTESIAN_POINT('Ctrl Pts',(-5.35015153481648,27.9843134832985,123.25));
#1808=CARTESIAN_POINT('Ctrl Pts',(-5.71944791716538,27.9985146170685,123.172008262426));
#1809=CARTESIAN_POINT('Ctrl Pts',(-6.0641208158707,27.9999712983542,123.012266240369));
#1810=CARTESIAN_POINT('Ctrl Pts',(-6.07695099572387,28.,123.006186604722));
#1811=CARTESIAN_POINT('Ctrl Pts',(-6.08972473588509,28.,123.));
#1812=CARTESIAN_POINT('',(-11.,28.,123.));
#1813=CARTESIAN_POINT('',(9.5,28.,123.));
#1814=CARTESIAN_POINT('Origin',(-11.,26.,123.));
#1815=CARTESIAN_POINT('',(9.5,28.,123.));
#1816=CARTESIAN_POINT('Origin',(-11.,26.,117.));
#1817=CARTESIAN_POINT('',(-17.,28.,117.));
#1818=CARTESIAN_POINT('Origin',(-17.,26.,117.));
#1819=CARTESIAN_POINT('Origin',(-11.,28.,117.));
#1820=CARTESIAN_POINT('Origin',(-17.,26.,62.5000000000001));
#1821=CARTESIAN_POINT('',(-17.,28.,108.5));
#1822=CARTESIAN_POINT('',(-17.5000000000002,27.9364916731037,107.));
#1823=CARTESIAN_POINT('Ctrl Pts',(-17.,28.,108.5));
#1824=CARTESIAN_POINT('Ctrl Pts',(-17.0956611231721,28.,108.372451835771));
#1825=CARTESIAN_POINT('Ctrl Pts',(-17.1798720625366,27.9931496753496,108.234530669775));
#1826=CARTESIAN_POINT('Ctrl Pts',(-17.4154713333258,27.9634639261172,107.748045922297));
#1827=CARTESIAN_POINT('Ctrl Pts',(-17.5000000000002,27.9364916731037,107.365399101334));
#1828=CARTESIAN_POINT('Ctrl Pts',(-17.5000000000002,27.9364916731037,107.));
#1829=CARTESIAN_POINT('',(-17.,28.,105.5));
#1830=CARTESIAN_POINT('Ctrl Pts',(-17.5000000000002,27.9364916731037,107.));
#1831=CARTESIAN_POINT('Ctrl Pts',(-17.5000000000002,27.9364916731037,106.634600898666));
#1832=CARTESIAN_POINT('Ctrl Pts',(-17.4154713333258,27.9634639261172,106.251954077703));
#1833=CARTESIAN_POINT('Ctrl Pts',(-17.1798720625366,27.9931496753496,105.765469330225));
#1834=CARTESIAN_POINT('Ctrl Pts',(-17.0956611231721,28.,105.627548164229));
#1835=CARTESIAN_POINT('Ctrl Pts',(-17.,28.,105.5));
#1836=CARTESIAN_POINT('',(-17.,28.,80.5773502691896));
#1837=CARTESIAN_POINT('',(-17.,28.,62.5000000000001));
#1838=CARTESIAN_POINT('Origin',(-17.,26.,80.5773502691896));
#1839=CARTESIAN_POINT('',(-17.,28.,62.5000000000001));
#1840=CARTESIAN_POINT('Origin',(-39.,26.,80.5773502691896));
#1841=CARTESIAN_POINT('Origin',(-39.,28.,80.5773502691896));
#1842=CARTESIAN_POINT('Origin',(14.9999999999998,12.,107.));
#1843=CARTESIAN_POINT('',(12.4999999999998,28.,107.));
#1844=CARTESIAN_POINT('Origin',(14.9999999999998,28.,107.));
#1845=CARTESIAN_POINT('',(12.4999999999998,22.,107.));
#1846=CARTESIAN_POINT('',(12.4999999999998,12.,107.));
#1847=CARTESIAN_POINT('Origin',(14.9999999999998,22.,107.));
#1848=CARTESIAN_POINT('Origin',(14.9999999999998,28.,107.));
#1849=CARTESIAN_POINT('Origin',(19.,0.,69.0303448853971));
#1850=CARTESIAN_POINT('Origin',(0.,28.,0.));
#1851=CARTESIAN_POINT('Origin',(-15.0000000000002,28.,107.));
#1852=CARTESIAN_POINT('',(-7.50000000000018,28.,120.75));
#1853=CARTESIAN_POINT('Origin',(-5.00000000000018,28.,120.75));
#1854=CARTESIAN_POINT('Origin',(-5.00000000000018,28.,120.75));
#1855=CARTESIAN_POINT('',(3.49999999999982,28.,120.75));
#1856=CARTESIAN_POINT('Origin',(4.99999999999982,28.,120.75));
#1857=CARTESIAN_POINT('',(-6.50000000000018,28.,71.25));
#1858=CARTESIAN_POINT('Origin',(-5.00000000000018,28.,71.25));
#1859=CARTESIAN_POINT('',(2.49999999999982,28.,71.25));
#1860=CARTESIAN_POINT('Origin',(4.99999999999982,28.,71.25));
#1861=CARTESIAN_POINT('',(-11.,28.,117.));
#1862=CARTESIAN_POINT('Origin',(-1.77635683940025E-14,0.,-8.88178419700125E-15));
#1863=CARTESIAN_POINT('',(-11.,0.,62.5));
#1864=CARTESIAN_POINT('',(-9.00000000000014,0.,97.0000000000003));
#1865=CARTESIAN_POINT('',(8.99999999999986,0.,97.0000000000001));
#1866=CARTESIAN_POINT('',(-4.49999999999974,0.,97.0000000000002));
#1867=CARTESIAN_POINT('',(8.99999999999986,0.,115.));
#1868=CARTESIAN_POINT('',(8.99999999999986,0.,48.5000000000001));
#1869=CARTESIAN_POINT('',(-9.00000000000021,0.,115.));
#1870=CARTESIAN_POINT('',(4.49999999999992,0.,115.));
#1871=CARTESIAN_POINT('',(-8.99999999999997,0.,57.4999999999998));
#1872=CARTESIAN_POINT('Origin',(-5.00000000000018,22.,71.25));
#1873=CARTESIAN_POINT('',(-6.50000000000018,22.,71.25));
#1874=CARTESIAN_POINT('Origin',(-5.00000000000018,22.,71.25));
#1875=CARTESIAN_POINT('Origin',(4.99999999999982,22.,120.75));
#1876=CARTESIAN_POINT('',(3.49999999999982,22.,120.75));
#1877=CARTESIAN_POINT('Origin',(4.99999999999982,22.,120.75));
#1878=CARTESIAN_POINT('Origin',(4.99999999999982,22.,71.25));
#1879=CARTESIAN_POINT('',(2.49999999999982,22.,71.25));
#1880=CARTESIAN_POINT('Origin',(4.99999999999982,22.,71.25));
#1881=CARTESIAN_POINT('Origin',(-15.0000000000002,22.,107.));
#1882=CARTESIAN_POINT('',(-17.5000000000002,22.,107.));
#1883=CARTESIAN_POINT('Origin',(-15.0000000000002,22.,107.));
#1884=CARTESIAN_POINT('Origin',(-5.00000000000018,22.,120.75));
#1885=CARTESIAN_POINT('',(-7.50000000000018,22.,120.75));
#1886=CARTESIAN_POINT('Origin',(-5.00000000000018,22.,120.75));
#1887=CARTESIAN_POINT('Origin',(14.9999999999998,22.,107.));
#1888=CARTESIAN_POINT('Origin',(-15.0000000000002,12.,107.));
#1889=CARTESIAN_POINT('',(-17.5000000000002,12.,107.));
#1890=CARTESIAN_POINT('Origin',(-5.00000000000018,12.,120.75));
#1891=CARTESIAN_POINT('',(-7.50000000000018,12.,120.75));
#1892=CARTESIAN_POINT('Origin',(4.99999999999982,12.,120.75));
#1893=CARTESIAN_POINT('',(3.49999999999982,12.,120.75));
#1894=CARTESIAN_POINT('Origin',(-5.00000000000018,12.,71.25));
#1895=CARTESIAN_POINT('',(-6.50000000000018,12.,71.25));
#1896=CARTESIAN_POINT('Origin',(4.99999999999982,12.,71.25));
#1897=CARTESIAN_POINT('',(2.49999999999982,12.,71.25));
#1898=CARTESIAN_POINT('Origin',(-11.,0.,125.));
#1899=CARTESIAN_POINT('Origin',(-9.00000000000013,0.,97.0000000000003));
#1900=CARTESIAN_POINT('',(-9.00000000000014,-2.,97.0000000000003));
#1901=CARTESIAN_POINT('',(-9.00000000000014,0.,97.0000000000003));
#1902=CARTESIAN_POINT('',(8.99999999999986,-2.,97.0000000000001));
#1903=CARTESIAN_POINT('',(8.99999999999986,-2.,97.0000000000001));
#1904=CARTESIAN_POINT('',(8.99999999999986,0.,97.0000000000001));
#1905=CARTESIAN_POINT('Origin',(-9.00000000000021,0.,115.));
#1906=CARTESIAN_POINT('',(-9.00000000000021,-2.,115.));
#1907=CARTESIAN_POINT('',(-9.00000000000021,0.,115.));
#1908=CARTESIAN_POINT('',(-9.00000000000014,-2.,97.0000000000003));
#1909=CARTESIAN_POINT('Origin',(8.99999999999986,0.,115.));
#1910=CARTESIAN_POINT('',(8.99999999999986,-2.,115.));
#1911=CARTESIAN_POINT('',(8.99999999999986,0.,115.));
#1912=CARTESIAN_POINT('',(-9.00000000000021,-2.,115.));
#1913=CARTESIAN_POINT('Origin',(8.99999999999986,0.,97.0000000000001));
#1914=CARTESIAN_POINT('',(8.99999999999986,-2.,115.));
#1915=CARTESIAN_POINT('Origin',(-1.70974345792274E-13,-2.,106.));
#1916=CARTESIAN_POINT('',(-6.,-2.,100.));
#1917=CARTESIAN_POINT('',(-6.00000000000033,-2.,112.));
#1918=CARTESIAN_POINT('',(-6.00000000000008,-2.,103.));
#1919=CARTESIAN_POINT('',(6.,-2.,100.));
#1920=CARTESIAN_POINT('',(2.99999999999991,-2.,100.));
#1921=CARTESIAN_POINT('',(5.99999999999999,-2.,112.));
#1922=CARTESIAN_POINT('',(5.99999999999999,-2.,109.));
#1923=CARTESIAN_POINT('',(-3.00000000000025,-2.,112.));
#1924=CARTESIAN_POINT('Origin',(6.,0.,100.));
#1925=CARTESIAN_POINT('',(-6.,0.,100.));
#1926=CARTESIAN_POINT('',(6.,0.,100.));
#1927=CARTESIAN_POINT('Origin',(-6.,0.,100.));
#1928=CARTESIAN_POINT('',(-6.00000000000033,0.,112.));
#1929=CARTESIAN_POINT('Origin',(5.99999999999999,0.,112.));
#1930=CARTESIAN_POINT('',(5.99999999999999,0.,112.));
#1931=CARTESIAN_POINT('Origin',(-6.00000000000033,0.,112.));
#1932=UNCERTAINTY_MEASURE_WITH_UNIT(LENGTH_MEASURE(0.01),#1936,
'DISTANCE_ACCURACY_VALUE',
'Maximum model space distance between geometric entities at asserted c
onnectivities');
#1933=UNCERTAINTY_MEASURE_WITH_UNIT(LENGTH_MEASURE(0.01),#1936,
'DISTANCE_ACCURACY_VALUE',
'Maximum model space distance between geometric entities at asserted c
onnectivities');
#1934=(
GEOMETRIC_REPRESENTATION_CONTEXT(3)
GLOBAL_UNCERTAINTY_ASSIGNED_CONTEXT((#1932))
GLOBAL_UNIT_ASSIGNED_CONTEXT((#1936,#1938,#1939))
REPRESENTATION_CONTEXT('','3D')
);
#1935=(
GEOMETRIC_REPRESENTATION_CONTEXT(3)
GLOBAL_UNCERTAINTY_ASSIGNED_CONTEXT((#1933))
GLOBAL_UNIT_ASSIGNED_CONTEXT((#1936,#1938,#1939))
REPRESENTATION_CONTEXT('','3D')
);
#1936=(
LENGTH_UNIT()
NAMED_UNIT(*)
SI_UNIT(.MILLI.,.METRE.)
);
#1937=(
LENGTH_UNIT()
NAMED_UNIT(*)
SI_UNIT(.CENTI.,.METRE.)
);
#1938=(
NAMED_UNIT(*)
PLANE_ANGLE_UNIT()
SI_UNIT($,.RADIAN.)
);
#1939=(
NAMED_UNIT(*)
SI_UNIT($,.STERADIAN.)
SOLID_ANGLE_UNIT()
);
#1940=SHAPE_DEFINITION_REPRESENTATION(#1941,#1942);
#1941=PRODUCT_DEFINITION_SHAPE('',$,#1944);
#1942=SHAPE_REPRESENTATION('',(#1118),#1934);
#1943=PRODUCT_DEFINITION_CONTEXT('part definition',#1948,'design');
#1944=PRODUCT_DEFINITION('BaseBottomHex','BaseBottomHexBox',#1945,#1943);
#1945=PRODUCT_DEFINITION_FORMATION('',$,#1950);
#1946=PRODUCT_RELATED_PRODUCT_CATEGORY('BaseBottomHexBox',
'BaseBottomHexBox',(#1950));
#1947=APPLICATION_PROTOCOL_DEFINITION('international standard',
'automotive_design',2009,#1948);
#1948=APPLICATION_CONTEXT(
'Core Data for Automotive Mechanical Design Process');
#1949=PRODUCT_CONTEXT('part definition',#1948,'mechanical');
#1950=PRODUCT('BaseBottomHex','BaseBottomHexBox',$,(#1949));
#1951=PRESENTATION_STYLE_ASSIGNMENT((#1953));
#1952=PRESENTATION_STYLE_ASSIGNMENT((#1954));
#1953=SURFACE_STYLE_USAGE(.BOTH.,#1959);
#1954=SURFACE_STYLE_USAGE(.BOTH.,#1960);
#1955=SURFACE_STYLE_RENDERING_WITH_PROPERTIES($,#1967,(#1957));
#1956=SURFACE_STYLE_RENDERING_WITH_PROPERTIES($,#1968,(#1958));
#1957=SURFACE_STYLE_TRANSPARENT(0.);
#1958=SURFACE_STYLE_TRANSPARENT(0.);
#1959=SURFACE_SIDE_STYLE('',(#1961,#1955));
#1960=SURFACE_SIDE_STYLE('',(#1962,#1956));
#1961=SURFACE_STYLE_FILL_AREA(#1963);
#1962=SURFACE_STYLE_FILL_AREA(#1964);
#1963=FILL_AREA_STYLE('',(#1965));
#1964=FILL_AREA_STYLE('',(#1966));
#1965=FILL_AREA_STYLE_COLOUR('',#1967);
#1966=FILL_AREA_STYLE_COLOUR('',#1968);
#1967=COLOUR_RGB('',0.749019607843137,0.749019607843137,0.749019607843137);
#1968=COLOUR_RGB('',0.92156862745098,0.92156862745098,0.92156862745098);
ENDSEC;
END-ISO-10303-21;
